<?xml version="1.0" encoding="UTF-8"?><svg xmlns="http://www.w3.org/2000/svg" xmlns:xlink="http://www.w3.org/1999/xlink" fill-opacity="1" color-rendering="auto" color-interpolation="auto" text-rendering="auto" stroke="black" stroke-linecap="square" width="737" stroke-miterlimit="10" shape-rendering="auto" stroke-opacity="1" fill="black" stroke-dasharray="none" font-weight="normal" stroke-width="1" height="850" font-family="'Dialog'" font-style="normal" stroke-linejoin="miter" font-size="12px" stroke-dashoffset="0" image-rendering="auto">
  <!--Generated by ySVG 2.6-->
  <defs id="genericDefs"/>
  <g>
    <defs id="defs1">
      <linearGradient x1="109.644" gradientUnits="userSpaceOnUse" x2="309.644" y1="179.25" y2="219.25" id="linearGradient1" spreadMethod="reflect">
        <stop stop-opacity="1" stop-color="white" offset="0%"/>
        <stop stop-opacity="1" stop-color="white" offset="100%"/>
      </linearGradient>
      <linearGradient x1="109.644" gradientUnits="userSpaceOnUse" x2="309.644" y1="243.796" y2="283.796" id="linearGradient2" spreadMethod="reflect">
        <stop stop-opacity="1" stop-color="white" offset="0%"/>
        <stop stop-opacity="1" stop-color="white" offset="100%"/>
      </linearGradient>
      <linearGradient x1="109.644" gradientUnits="userSpaceOnUse" x2="309.644" y1="313.796" y2="353.796" id="linearGradient3" spreadMethod="reflect">
        <stop stop-opacity="1" stop-color="white" offset="0%"/>
        <stop stop-opacity="1" stop-color="white" offset="100%"/>
      </linearGradient>
      <linearGradient x1="109.644" gradientUnits="userSpaceOnUse" x2="309.644" y1="383.796" y2="423.796" id="linearGradient4" spreadMethod="reflect">
        <stop stop-opacity="1" stop-color="white" offset="0%"/>
        <stop stop-opacity="1" stop-color="white" offset="100%"/>
      </linearGradient>
      <linearGradient x1="109.644" gradientUnits="userSpaceOnUse" x2="309.644" y1="453.796" y2="493.796" id="linearGradient5" spreadMethod="reflect">
        <stop stop-opacity="1" stop-color="white" offset="0%"/>
        <stop stop-opacity="1" stop-color="white" offset="100%"/>
      </linearGradient>
      <linearGradient x1="109.644" gradientUnits="userSpaceOnUse" x2="309.644" y1="523.796" y2="563.796" id="linearGradient6" spreadMethod="reflect">
        <stop stop-opacity="1" stop-color="white" offset="0%"/>
        <stop stop-opacity="1" stop-color="white" offset="100%"/>
      </linearGradient>
      <linearGradient x1="109.644" gradientUnits="userSpaceOnUse" x2="309.644" y1="593.796" y2="633.796" id="linearGradient7" spreadMethod="reflect">
        <stop stop-opacity="1" stop-color="white" offset="0%"/>
        <stop stop-opacity="1" stop-color="white" offset="100%"/>
      </linearGradient>
      <linearGradient x1="109.644" gradientUnits="userSpaceOnUse" x2="309.644" y1="663.796" y2="703.796" id="linearGradient8" spreadMethod="reflect">
        <stop stop-opacity="1" stop-color="white" offset="0%"/>
        <stop stop-opacity="1" stop-color="white" offset="100%"/>
      </linearGradient>
      <linearGradient x1="109.644" gradientUnits="userSpaceOnUse" x2="309.644" y1="733.796" y2="773.796" id="linearGradient9" spreadMethod="reflect">
        <stop stop-opacity="1" stop-color="white" offset="0%"/>
        <stop stop-opacity="1" stop-color="white" offset="100%"/>
      </linearGradient>
      <linearGradient x1="109.644" gradientUnits="userSpaceOnUse" x2="309.644" y1="803.796" y2="843.796" id="linearGradient10" spreadMethod="reflect">
        <stop stop-opacity="1" stop-color="white" offset="0%"/>
        <stop stop-opacity="1" stop-color="white" offset="100%"/>
      </linearGradient>
      <linearGradient x1="169.644" gradientUnits="userSpaceOnUse" x2="249.644" y1="873.796" y2="913.796" id="linearGradient11" spreadMethod="reflect">
        <stop stop-opacity="1" stop-color="white" offset="0%"/>
        <stop stop-opacity="1" stop-color="white" offset="100%"/>
      </linearGradient>
      <linearGradient x1="534.938" gradientUnits="userSpaceOnUse" x2="614.938" y1="124.41" y2="164.41" id="linearGradient12" spreadMethod="reflect">
        <stop stop-opacity="1" stop-color="white" offset="0%"/>
        <stop stop-opacity="1" stop-color="white" offset="100%"/>
      </linearGradient>
      <linearGradient x1="474.938" gradientUnits="userSpaceOnUse" x2="674.938" y1="188.956" y2="228.956" id="linearGradient13" spreadMethod="reflect">
        <stop stop-opacity="1" stop-color="white" offset="0%"/>
        <stop stop-opacity="1" stop-color="white" offset="100%"/>
      </linearGradient>
      <linearGradient x1="474.938" gradientUnits="userSpaceOnUse" x2="674.938" y1="258.956" y2="298.956" id="linearGradient14" spreadMethod="reflect">
        <stop stop-opacity="1" stop-color="white" offset="0%"/>
        <stop stop-opacity="1" stop-color="white" offset="100%"/>
      </linearGradient>
      <linearGradient x1="480.858" gradientUnits="userSpaceOnUse" x2="669.018" y1="328.956" y2="388.796" id="linearGradient15" spreadMethod="reflect">
        <stop stop-opacity="1" stop-color="white" offset="0%"/>
        <stop stop-opacity="1" stop-color="white" offset="100%"/>
      </linearGradient>
      <linearGradient x1="339.644" gradientUnits="userSpaceOnUse" x2="539.644" y1="418.796" y2="458.796" id="linearGradient16" spreadMethod="reflect">
        <stop stop-opacity="1" stop-color="white" offset="0%"/>
        <stop stop-opacity="1" stop-color="white" offset="100%"/>
      </linearGradient>
      <linearGradient x1="615.288" gradientUnits="userSpaceOnUse" x2="815.288" y1="418.796" y2="458.796" id="linearGradient17" spreadMethod="reflect">
        <stop stop-opacity="1" stop-color="white" offset="0%"/>
        <stop stop-opacity="1" stop-color="white" offset="100%"/>
      </linearGradient>
      <linearGradient x1="483.386" gradientUnits="userSpaceOnUse" x2="671.546" y1="488.796" y2="561.3336" id="linearGradient18" spreadMethod="reflect">
        <stop stop-opacity="1" stop-color="white" offset="0%"/>
        <stop stop-opacity="1" stop-color="white" offset="100%"/>
      </linearGradient>
      <linearGradient x1="339.644" gradientUnits="userSpaceOnUse" x2="539.644" y1="591.3336" y2="663.8712" id="linearGradient19" spreadMethod="reflect">
        <stop stop-opacity="1" stop-color="white" offset="0%"/>
        <stop stop-opacity="1" stop-color="white" offset="100%"/>
      </linearGradient>
      <linearGradient x1="615.288" gradientUnits="userSpaceOnUse" x2="815.288" y1="591.3336" y2="663.8712" id="linearGradient20" spreadMethod="reflect">
        <stop stop-opacity="1" stop-color="white" offset="0%"/>
        <stop stop-opacity="1" stop-color="white" offset="100%"/>
      </linearGradient>
      <linearGradient x1="477.466" gradientUnits="userSpaceOnUse" x2="677.466" y1="693.8712" y2="733.8712" id="linearGradient21" spreadMethod="reflect">
        <stop stop-opacity="1" stop-color="white" offset="0%"/>
        <stop stop-opacity="1" stop-color="white" offset="100%"/>
      </linearGradient>
      <linearGradient x1="477.466" gradientUnits="userSpaceOnUse" x2="677.466" y1="763.8712" y2="803.8712" id="linearGradient22" spreadMethod="reflect">
        <stop stop-opacity="1" stop-color="white" offset="0%"/>
        <stop stop-opacity="1" stop-color="white" offset="100%"/>
      </linearGradient>
      <linearGradient x1="477.466" gradientUnits="userSpaceOnUse" x2="677.466" y1="833.8712" y2="873.8712" id="linearGradient23" spreadMethod="reflect">
        <stop stop-opacity="1" stop-color="white" offset="0%"/>
        <stop stop-opacity="1" stop-color="white" offset="100%"/>
      </linearGradient>
      <linearGradient x1="477.466" gradientUnits="userSpaceOnUse" x2="677.466" y1="903.8712" y2="943.8712" id="linearGradient24" spreadMethod="reflect">
        <stop stop-opacity="1" stop-color="white" offset="0%"/>
        <stop stop-opacity="1" stop-color="white" offset="100%"/>
      </linearGradient>
      <clipPath clipPathUnits="userSpaceOnUse" id="clipPath1">
        <path d="M0 0 L737 0 L737 850 L0 850 L0 0 Z"/>
      </clipPath>
      <clipPath clipPathUnits="userSpaceOnUse" id="clipPath2">
        <path d="M94 109 L831 109 L831 959 L94 959 L94 109 Z"/>
      </clipPath>
    </defs>
    <g fill="white" text-rendering="geometricPrecision" shape-rendering="geometricPrecision" transform="translate(-94,-109)" stroke="white">
      <rect x="94" width="737" height="850" y="109" clip-path="url(#clipPath2)" stroke="none"/>
    </g>
    <g fill="url(#linearGradient1)" text-rendering="geometricPrecision" shape-rendering="geometricPrecision" transform="matrix(1,0,0,1,-94,-109)" stroke="url(#linearGradient1)">
      <rect x="109.644" y="179.25" clip-path="url(#clipPath2)" width="200" rx="20" ry="20" height="40" stroke="none"/>
    </g>
    <g text-rendering="geometricPrecision" stroke-miterlimit="1.45" shape-rendering="geometricPrecision" transform="matrix(1,0,0,1,-94,-109)" stroke-linecap="butt">
      <rect x="109.644" y="179.25" clip-path="url(#clipPath2)" fill="none" width="200" rx="20" ry="20" height="40"/>
      <text x="167.7436" xml:space="preserve" y="203.4043" clip-path="url(#clipPath2)" font-family="sans-serif" stroke="none">Начало РДЛК</text>
    </g>
    <g fill="url(#linearGradient2)" text-rendering="geometricPrecision" shape-rendering="geometricPrecision" transform="matrix(1,0,0,1,-94,-109)" stroke="url(#linearGradient2)">
      <path d="M109.644 243.796 L309.644 243.796 L309.644 283.796 L109.644 283.796 Z" stroke="none" clip-path="url(#clipPath2)"/>
    </g>
    <g text-rendering="geometricPrecision" stroke-miterlimit="1.45" shape-rendering="geometricPrecision" transform="matrix(1,0,0,1,-94,-109)" stroke-linecap="butt">
      <path fill="none" d="M109.644 243.796 L309.644 243.796 L309.644 283.796 L109.644 283.796 Z" clip-path="url(#clipPath2)"/>
      <text x="176.2133" xml:space="preserve" y="267.9503" clip-path="url(#clipPath2)" font-family="sans-serif" stroke="none">n = len(s1)</text>
    </g>
    <g fill="url(#linearGradient3)" text-rendering="geometricPrecision" shape-rendering="geometricPrecision" transform="matrix(1,0,0,1,-94,-109)" stroke="url(#linearGradient3)">
      <path d="M109.644 313.796 L309.644 313.796 L309.644 353.796 L109.644 353.796 Z" stroke="none" clip-path="url(#clipPath2)"/>
    </g>
    <g text-rendering="geometricPrecision" stroke-miterlimit="1.45" shape-rendering="geometricPrecision" transform="matrix(1,0,0,1,-94,-109)" stroke-linecap="butt">
      <path fill="none" d="M109.644 313.796 L309.644 313.796 L309.644 353.796 L109.644 353.796 Z" clip-path="url(#clipPath2)"/>
      <text x="174.1713" xml:space="preserve" y="337.9503" clip-path="url(#clipPath2)" font-family="sans-serif" stroke="none">m = len(s2)</text>
    </g>
    <g fill="url(#linearGradient4)" text-rendering="geometricPrecision" shape-rendering="geometricPrecision" transform="matrix(1,0,0,1,-94,-109)" stroke="url(#linearGradient4)">
      <path d="M109.644 383.796 L309.644 383.796 L309.644 423.796 L109.644 423.796 Z" stroke="none" clip-path="url(#clipPath2)"/>
    </g>
    <g text-rendering="geometricPrecision" stroke-miterlimit="1.45" shape-rendering="geometricPrecision" transform="matrix(1,0,0,1,-94,-109)" stroke-linecap="butt">
      <path fill="none" d="M109.644 383.796 L309.644 383.796 L309.644 423.796 L109.644 423.796 Z" clip-path="url(#clipPath2)"/>
      <text x="155.8667" xml:space="preserve" y="400.9659" clip-path="url(#clipPath2)" font-family="sans-serif" stroke="none">cache = матрица</text>
      <text x="117.394" xml:space="preserve" y="414.9347" clip-path="url(#clipPath2)" font-family="sans-serif" stroke="none"> целых размера (n+1)x(m+1)</text>
    </g>
    <g fill="url(#linearGradient5)" text-rendering="geometricPrecision" shape-rendering="geometricPrecision" transform="matrix(1,0,0,1,-94,-109)" stroke="url(#linearGradient5)">
      <path d="M119.644 453.796 L299.644 453.796 L309.644 463.796 L309.644 493.796 L109.644 493.796 L109.644 463.796 Z" stroke="none" clip-path="url(#clipPath2)"/>
    </g>
    <g text-rendering="geometricPrecision" stroke-miterlimit="1.45" shape-rendering="geometricPrecision" transform="matrix(1,0,0,1,-94,-109)" stroke-linecap="butt">
      <path fill="none" d="M119.644 453.796 L299.644 453.796 L309.644 463.796 L309.644 493.796 L109.644 493.796 L109.644 463.796 Z" clip-path="url(#clipPath2)"/>
      <text x="156.0278" xml:space="preserve" y="470.9659" clip-path="url(#clipPath2)" font-family="sans-serif" stroke="none">Цикл по i от 0 до</text>
      <text x="161.7348" xml:space="preserve" y="484.9347" clip-path="url(#clipPath2)" font-family="sans-serif" stroke="none"> n+1 с шагом 1</text>
    </g>
    <g fill="url(#linearGradient6)" text-rendering="geometricPrecision" shape-rendering="geometricPrecision" transform="matrix(1,0,0,1,-94,-109)" stroke="url(#linearGradient6)">
      <path d="M109.644 523.796 L309.644 523.796 L309.644 563.796 L109.644 563.796 Z" stroke="none" clip-path="url(#clipPath2)"/>
    </g>
    <g text-rendering="geometricPrecision" stroke-miterlimit="1.45" shape-rendering="geometricPrecision" transform="matrix(1,0,0,1,-94,-109)" stroke-linecap="butt">
      <path fill="none" d="M109.644 523.796 L309.644 523.796 L309.644 563.796 L109.644 563.796 Z" clip-path="url(#clipPath2)"/>
      <text x="166.519" xml:space="preserve" y="547.9503" clip-path="url(#clipPath2)" font-family="sans-serif" stroke="none">cache[i][0] = i</text>
    </g>
    <g fill="url(#linearGradient7)" text-rendering="geometricPrecision" shape-rendering="geometricPrecision" transform="matrix(1,0,0,1,-94,-109)" stroke="url(#linearGradient7)">
      <path d="M109.644 593.796 L309.644 593.796 L309.644 623.796 L299.644 633.796 L119.644 633.796 L109.644 623.796 Z" stroke="none" clip-path="url(#clipPath2)"/>
    </g>
    <g text-rendering="geometricPrecision" stroke-miterlimit="1.45" shape-rendering="geometricPrecision" transform="matrix(1,0,0,1,-94,-109)" stroke-linecap="butt">
      <path fill="none" d="M109.644 593.796 L309.644 593.796 L309.644 623.796 L299.644 633.796 L119.644 633.796 L109.644 623.796 Z" clip-path="url(#clipPath2)"/>
      <text x="155.9135" xml:space="preserve" y="617.9503" clip-path="url(#clipPath2)" font-family="sans-serif" stroke="none">Конец цикла по i</text>
    </g>
    <g fill="url(#linearGradient8)" text-rendering="geometricPrecision" shape-rendering="geometricPrecision" transform="matrix(1,0,0,1,-94,-109)" stroke="url(#linearGradient8)">
      <path d="M119.644 663.796 L299.644 663.796 L309.644 673.796 L309.644 703.796 L109.644 703.796 L109.644 673.796 Z" stroke="none" clip-path="url(#clipPath2)"/>
    </g>
    <g text-rendering="geometricPrecision" stroke-miterlimit="1.45" shape-rendering="geometricPrecision" transform="matrix(1,0,0,1,-94,-109)" stroke-linecap="butt">
      <path fill="none" d="M119.644 663.796 L299.644 663.796 L309.644 673.796 L309.644 703.796 L109.644 703.796 L109.644 673.796 Z" clip-path="url(#clipPath2)"/>
      <text x="156.0278" xml:space="preserve" y="680.9659" clip-path="url(#clipPath2)" font-family="sans-serif" stroke="none">Цикл по i от 0 до</text>
      <text x="159.6928" xml:space="preserve" y="694.9347" clip-path="url(#clipPath2)" font-family="sans-serif" stroke="none"> m+1 с шагом 1</text>
    </g>
    <g fill="url(#linearGradient9)" text-rendering="geometricPrecision" shape-rendering="geometricPrecision" transform="matrix(1,0,0,1,-94,-109)" stroke="url(#linearGradient9)">
      <path d="M109.644 733.796 L309.644 733.796 L309.644 773.796 L109.644 773.796 Z" stroke="none" clip-path="url(#clipPath2)"/>
    </g>
    <g text-rendering="geometricPrecision" stroke-miterlimit="1.45" shape-rendering="geometricPrecision" transform="matrix(1,0,0,1,-94,-109)" stroke-linecap="butt">
      <path fill="none" d="M109.644 733.796 L309.644 733.796 L309.644 773.796 L109.644 773.796 Z" clip-path="url(#clipPath2)"/>
      <text x="166.519" xml:space="preserve" y="757.9503" clip-path="url(#clipPath2)" font-family="sans-serif" stroke="none">cache[0][i] = i</text>
    </g>
    <g fill="url(#linearGradient10)" text-rendering="geometricPrecision" shape-rendering="geometricPrecision" transform="matrix(1,0,0,1,-94,-109)" stroke="url(#linearGradient10)">
      <path d="M109.644 803.796 L309.644 803.796 L309.644 833.796 L299.644 843.796 L119.644 843.796 L109.644 833.796 Z" stroke="none" clip-path="url(#clipPath2)"/>
    </g>
    <g text-rendering="geometricPrecision" stroke-miterlimit="1.45" shape-rendering="geometricPrecision" transform="matrix(1,0,0,1,-94,-109)" stroke-linecap="butt">
      <path fill="none" d="M109.644 803.796 L309.644 803.796 L309.644 833.796 L299.644 843.796 L119.644 843.796 L109.644 833.796 Z" clip-path="url(#clipPath2)"/>
      <text x="155.9135" xml:space="preserve" y="827.9503" clip-path="url(#clipPath2)" font-family="sans-serif" stroke="none">Конец цикла по i</text>
    </g>
    <g fill="url(#linearGradient11)" text-rendering="geometricPrecision" shape-rendering="geometricPrecision" transform="matrix(1,0,0,1,-94,-109)" stroke="url(#linearGradient11)">
      <circle r="20" clip-path="url(#clipPath2)" cx="209.644" cy="893.796" stroke="none"/>
    </g>
    <g text-rendering="geometricPrecision" stroke-miterlimit="1.45" shape-rendering="geometricPrecision" transform="matrix(1,0,0,1,-94,-109)" stroke-linecap="butt">
      <circle fill="none" r="20" clip-path="url(#clipPath2)" cx="209.644" cy="893.796"/>
      <text x="205.5395" xml:space="preserve" y="897.9503" clip-path="url(#clipPath2)" font-family="sans-serif" stroke="none">A</text>
    </g>
    <g fill="url(#linearGradient12)" text-rendering="geometricPrecision" shape-rendering="geometricPrecision" transform="matrix(1,0,0,1,-94,-109)" stroke="url(#linearGradient12)">
      <circle r="20" clip-path="url(#clipPath2)" cx="574.938" cy="144.41" stroke="none"/>
    </g>
    <g text-rendering="geometricPrecision" stroke-miterlimit="1.45" shape-rendering="geometricPrecision" transform="matrix(1,0,0,1,-94,-109)" stroke-linecap="butt">
      <circle fill="none" r="20" clip-path="url(#clipPath2)" cx="574.938" cy="144.41"/>
      <text x="570.8335" xml:space="preserve" y="148.5643" clip-path="url(#clipPath2)" font-family="sans-serif" stroke="none">A</text>
    </g>
    <g fill="url(#linearGradient13)" text-rendering="geometricPrecision" shape-rendering="geometricPrecision" transform="matrix(1,0,0,1,-94,-109)" stroke="url(#linearGradient13)">
      <path d="M484.938 188.956 L664.938 188.956 L674.938 198.956 L674.938 228.956 L474.938 228.956 L474.938 198.956 Z" stroke="none" clip-path="url(#clipPath2)"/>
    </g>
    <g text-rendering="geometricPrecision" stroke-miterlimit="1.45" shape-rendering="geometricPrecision" transform="matrix(1,0,0,1,-94,-109)" stroke-linecap="butt">
      <path fill="none" d="M484.938 188.956 L664.938 188.956 L674.938 198.956 L674.938 228.956 L474.938 228.956 L474.938 198.956 Z" clip-path="url(#clipPath2)"/>
      <text x="521.3218" xml:space="preserve" y="206.1259" clip-path="url(#clipPath2)" font-family="sans-serif" stroke="none">Цикл по i от 1 до</text>
      <text x="527.0288" xml:space="preserve" y="220.0947" clip-path="url(#clipPath2)" font-family="sans-serif" stroke="none"> n+1 с шагом 1</text>
    </g>
    <g fill="url(#linearGradient14)" text-rendering="geometricPrecision" shape-rendering="geometricPrecision" transform="matrix(1,0,0,1,-94,-109)" stroke="url(#linearGradient14)">
      <path d="M484.938 258.956 L664.938 258.956 L674.938 268.956 L674.938 298.956 L474.938 298.956 L474.938 268.956 Z" stroke="none" clip-path="url(#clipPath2)"/>
    </g>
    <g text-rendering="geometricPrecision" stroke-miterlimit="1.45" shape-rendering="geometricPrecision" transform="matrix(1,0,0,1,-94,-109)" stroke-linecap="butt">
      <path fill="none" d="M484.938 258.956 L664.938 258.956 L674.938 268.956 L674.938 298.956 L474.938 298.956 L474.938 268.956 Z" clip-path="url(#clipPath2)"/>
      <text x="521.3218" xml:space="preserve" y="276.1259" clip-path="url(#clipPath2)" font-family="sans-serif" stroke="none">Цикл по j от 1 до</text>
      <text x="524.9868" xml:space="preserve" y="290.0947" clip-path="url(#clipPath2)" font-family="sans-serif" stroke="none"> m+1 с шагом 1</text>
    </g>
    <g fill="url(#linearGradient15)" text-rendering="geometricPrecision" shape-rendering="geometricPrecision" transform="matrix(1,0,0,1,-94,-109)" stroke="url(#linearGradient15)">
      <path d="M574.938 328.956 L669.018 358.876 L574.938 388.796 L480.858 358.876 Z" stroke="none" clip-path="url(#clipPath2)"/>
    </g>
    <g text-rendering="geometricPrecision" stroke-miterlimit="1.45" shape-rendering="geometricPrecision" transform="matrix(1,0,0,1,-94,-109)" stroke-linecap="butt">
      <path fill="none" d="M574.938 328.956 L669.018 358.876 L574.938 388.796 L480.858 358.876 Z" clip-path="url(#clipPath2)"/>
      <text x="534.4849" xml:space="preserve" y="363.0303" clip-path="url(#clipPath2)" font-family="sans-serif" stroke="none">s1[i] == s2[j]</text>
    </g>
    <g fill="url(#linearGradient16)" text-rendering="geometricPrecision" shape-rendering="geometricPrecision" transform="matrix(1,0,0,1,-94,-109)" stroke="url(#linearGradient16)">
      <path d="M339.644 418.796 L539.644 418.796 L539.644 458.796 L339.644 458.796 Z" stroke="none" clip-path="url(#clipPath2)"/>
    </g>
    <g text-rendering="geometricPrecision" stroke-miterlimit="1.45" shape-rendering="geometricPrecision" transform="matrix(1,0,0,1,-94,-109)" stroke-linecap="butt">
      <path fill="none" d="M339.644 418.796 L539.644 418.796 L539.644 458.796 L339.644 458.796 Z" clip-path="url(#clipPath2)"/>
      <text x="404.6841" xml:space="preserve" y="442.9503" clip-path="url(#clipPath2)" font-family="sans-serif" stroke="none">replace = 1</text>
    </g>
    <g fill="url(#linearGradient17)" text-rendering="geometricPrecision" shape-rendering="geometricPrecision" transform="matrix(1,0,0,1,-94,-109)" stroke="url(#linearGradient17)">
      <path d="M615.288 418.796 L815.288 418.796 L815.288 458.796 L615.288 458.796 Z" stroke="none" clip-path="url(#clipPath2)"/>
    </g>
    <g text-rendering="geometricPrecision" stroke-miterlimit="1.45" shape-rendering="geometricPrecision" transform="matrix(1,0,0,1,-94,-109)" stroke-linecap="butt">
      <path fill="none" d="M615.288 418.796 L815.288 418.796 L815.288 458.796 L615.288 458.796 Z" clip-path="url(#clipPath2)"/>
      <text x="680.3281" xml:space="preserve" y="442.9503" clip-path="url(#clipPath2)" font-family="sans-serif" stroke="none">replace = 0</text>
    </g>
    <g fill="url(#linearGradient18)" text-rendering="geometricPrecision" shape-rendering="geometricPrecision" transform="matrix(1,0,0,1,-94,-109)" stroke="url(#linearGradient18)">
      <path d="M577.466 488.796 L671.546 525.0648 L577.466 561.3336 L483.386 525.0648 Z" stroke="none" clip-path="url(#clipPath2)"/>
    </g>
    <g text-rendering="geometricPrecision" stroke-miterlimit="1.45" shape-rendering="geometricPrecision" transform="matrix(1,0,0,1,-94,-109)" stroke-linecap="butt">
      <path fill="none" d="M577.466 488.796 L671.546 525.0648 L577.466 561.3336 L483.386 525.0648 Z" clip-path="url(#clipPath2)"/>
      <text x="541.7443" xml:space="preserve" y="515.2504" clip-path="url(#clipPath2)" font-family="sans-serif" stroke="none">i&gt;0 И j&gt;0 И</text>
      <text x="526.5422" xml:space="preserve" y="529.2191" clip-path="url(#clipPath2)" font-family="sans-serif" stroke="none">s1[i]==s2[j-1] И </text>
      <text x="534.8449" xml:space="preserve" y="543.1879" clip-path="url(#clipPath2)" font-family="sans-serif" stroke="none">s1[i-1]==s2[j]</text>
    </g>
    <g fill="url(#linearGradient19)" text-rendering="geometricPrecision" shape-rendering="geometricPrecision" transform="matrix(1,0,0,1,-94,-109)" stroke="url(#linearGradient19)">
      <path d="M339.644 591.3336 L539.644 591.3336 L539.644 663.8712 L339.644 663.8712 Z" stroke="none" clip-path="url(#clipPath2)"/>
    </g>
    <g text-rendering="geometricPrecision" stroke-miterlimit="1.45" shape-rendering="geometricPrecision" transform="matrix(1,0,0,1,-94,-109)" stroke-linecap="butt">
      <path fill="none" d="M339.644 591.3336 L539.644 591.3336 L539.644 663.8712 L339.644 663.8712 Z" clip-path="url(#clipPath2)"/>
      <text x="386.6811" xml:space="preserve" y="610.8036" clip-path="url(#clipPath2)" font-family="sans-serif" stroke="none">cache[i][j] = min(</text>
      <text x="392.4438" xml:space="preserve" y="624.7723" clip-path="url(#clipPath2)" font-family="sans-serif" stroke="none">cache[i][j-1]+1,</text>
      <text x="392.4438" xml:space="preserve" y="638.7411" clip-path="url(#clipPath2)" font-family="sans-serif" stroke="none">cache[i-1][j]+1,</text>
      <text x="367.5444" xml:space="preserve" y="652.7098" clip-path="url(#clipPath2)" font-family="sans-serif" stroke="none">cache[i-1][j-1]+replace)</text>
    </g>
    <g fill="url(#linearGradient20)" text-rendering="geometricPrecision" shape-rendering="geometricPrecision" transform="matrix(1,0,0,1,-94,-109)" stroke="url(#linearGradient20)">
      <path d="M615.288 591.3336 L815.288 591.3336 L815.288 663.8712 L615.288 663.8712 Z" stroke="none" clip-path="url(#clipPath2)"/>
    </g>
    <g text-rendering="geometricPrecision" stroke-miterlimit="1.45" shape-rendering="geometricPrecision" transform="matrix(1,0,0,1,-94,-109)" stroke-linecap="butt">
      <path fill="none" d="M615.288 591.3336 L815.288 591.3336 L815.288 663.8712 L615.288 663.8712 Z" clip-path="url(#clipPath2)"/>
      <text x="662.3251" xml:space="preserve" y="603.8192" clip-path="url(#clipPath2)" font-family="sans-serif" stroke="none">cache[i][j] = min(</text>
      <text x="668.0878" xml:space="preserve" y="617.788" clip-path="url(#clipPath2)" font-family="sans-serif" stroke="none">cache[i][j-1]+1,</text>
      <text x="668.0878" xml:space="preserve" y="631.7567" clip-path="url(#clipPath2)" font-family="sans-serif" stroke="none">cache[i-1][j]+1,</text>
      <text x="643.622" xml:space="preserve" y="645.7255" clip-path="url(#clipPath2)" font-family="sans-serif" stroke="none">cache[i-1][j-1]+replace,</text>
      <text x="661.6718" xml:space="preserve" y="659.6942" clip-path="url(#clipPath2)" font-family="sans-serif" stroke="none">cache[i-2][j-2]+1)</text>
    </g>
    <g fill="url(#linearGradient21)" text-rendering="geometricPrecision" shape-rendering="geometricPrecision" transform="matrix(1,0,0,1,-94,-109)" stroke="url(#linearGradient21)">
      <path d="M477.466 693.8712 L677.466 693.8712 L677.466 723.8712 L667.466 733.8712 L487.466 733.8712 L477.466 723.8712 Z" stroke="none" clip-path="url(#clipPath2)"/>
    </g>
    <g text-rendering="geometricPrecision" stroke-miterlimit="1.45" shape-rendering="geometricPrecision" transform="matrix(1,0,0,1,-94,-109)" stroke-linecap="butt">
      <path fill="none" d="M477.466 693.8712 L677.466 693.8712 L677.466 723.8712 L667.466 733.8712 L487.466 733.8712 L477.466 723.8712 Z" clip-path="url(#clipPath2)"/>
      <text x="523.7355" xml:space="preserve" y="718.0255" clip-path="url(#clipPath2)" font-family="sans-serif" stroke="none">Конец цикла по j</text>
    </g>
    <g fill="url(#linearGradient22)" text-rendering="geometricPrecision" shape-rendering="geometricPrecision" transform="matrix(1,0,0,1,-94,-109)" stroke="url(#linearGradient22)">
      <path d="M477.466 763.8712 L677.466 763.8712 L677.466 793.8712 L667.466 803.8712 L487.466 803.8712 L477.466 793.8712 Z" stroke="none" clip-path="url(#clipPath2)"/>
    </g>
    <g text-rendering="geometricPrecision" stroke-miterlimit="1.45" shape-rendering="geometricPrecision" transform="matrix(1,0,0,1,-94,-109)" stroke-linecap="butt">
      <path fill="none" d="M477.466 763.8712 L677.466 763.8712 L677.466 793.8712 L667.466 803.8712 L487.466 803.8712 L477.466 793.8712 Z" clip-path="url(#clipPath2)"/>
      <text x="523.7355" xml:space="preserve" y="788.0255" clip-path="url(#clipPath2)" font-family="sans-serif" stroke="none">Конец цикла по j</text>
    </g>
    <g fill="url(#linearGradient23)" text-rendering="geometricPrecision" shape-rendering="geometricPrecision" transform="matrix(1,0,0,1,-94,-109)" stroke="url(#linearGradient23)">
      <path d="M487.666 833.8712 L677.466 833.8712 L667.266 873.8712 L477.466 873.8712 Z" stroke="none" clip-path="url(#clipPath2)"/>
    </g>
    <g text-rendering="geometricPrecision" stroke-miterlimit="1.45" shape-rendering="geometricPrecision" transform="matrix(1,0,0,1,-94,-109)" stroke-linecap="butt">
      <path fill="none" d="M487.666 833.8712 L677.466 833.8712 L667.266 873.8712 L477.466 873.8712 Z" clip-path="url(#clipPath2)"/>
      <text x="513.2853" xml:space="preserve" y="858.0255" clip-path="url(#clipPath2)" font-family="sans-serif" stroke="none">Возврат cache[n][m]</text>
    </g>
    <g fill="url(#linearGradient24)" text-rendering="geometricPrecision" shape-rendering="geometricPrecision" transform="matrix(1,0,0,1,-94,-109)" stroke="url(#linearGradient24)">
      <rect x="477.466" y="903.8712" clip-path="url(#clipPath2)" width="200" rx="20" ry="20" height="40" stroke="none"/>
    </g>
    <g text-rendering="geometricPrecision" stroke-miterlimit="1.45" shape-rendering="geometricPrecision" transform="matrix(1,0,0,1,-94,-109)" stroke-linecap="butt">
      <rect x="477.466" y="903.8712" clip-path="url(#clipPath2)" fill="none" width="200" rx="20" ry="20" height="40"/>
      <text x="538.8527" xml:space="preserve" y="928.0255" clip-path="url(#clipPath2)" font-family="sans-serif" stroke="none">Конец РДЛК</text>
    </g>
    <g text-rendering="geometricPrecision" stroke-miterlimit="1.45" shape-rendering="geometricPrecision" transform="matrix(1,0,0,1,-94,-109)" stroke-linecap="butt">
      <path fill="none" d="M209.644 219.263 L209.644 235.8345" clip-path="url(#clipPath2)"/>
    </g>
    <g text-rendering="geometricPrecision" stroke-miterlimit="1.45" shape-rendering="geometricPrecision" transform="matrix(1,0,0,1,-94,-109)" stroke-linecap="butt">
      <path d="M209.644 243.8345 L214.644 231.8345 L209.644 234.8345 L204.644 231.8345 Z" stroke="none" clip-path="url(#clipPath2)"/>
      <path fill="none" d="M209.644 283.7911 L209.644 305.8234" clip-path="url(#clipPath2)"/>
      <path d="M209.644 313.8234 L214.644 301.8234 L209.644 304.8234 L204.644 301.8234 Z" clip-path="url(#clipPath2)" stroke="none"/>
      <path fill="none" d="M209.644 353.7911 L209.644 375.8234" clip-path="url(#clipPath2)"/>
      <path d="M209.644 383.8234 L214.644 371.8234 L209.644 374.8234 L204.644 371.8234 Z" clip-path="url(#clipPath2)" stroke="none"/>
      <path fill="none" d="M209.644 423.7911 L209.644 445.8234" clip-path="url(#clipPath2)"/>
      <path d="M209.644 453.8234 L214.644 441.8234 L209.644 444.8234 L204.644 441.8234 Z" clip-path="url(#clipPath2)" stroke="none"/>
      <path fill="none" d="M209.644 493.7911 L209.644 515.8234" clip-path="url(#clipPath2)"/>
      <path d="M209.644 523.8234 L214.644 511.8234 L209.644 514.8234 L204.644 511.8234 Z" clip-path="url(#clipPath2)" stroke="none"/>
      <path fill="none" d="M209.644 563.7911 L209.644 585.8234" clip-path="url(#clipPath2)"/>
      <path d="M209.644 593.8234 L214.644 581.8234 L209.644 584.8234 L204.644 581.8234 Z" clip-path="url(#clipPath2)" stroke="none"/>
      <path fill="none" d="M209.644 633.7911 L209.644 655.8234" clip-path="url(#clipPath2)"/>
      <path d="M209.644 663.8234 L214.644 651.8234 L209.644 654.8234 L204.644 651.8234 Z" clip-path="url(#clipPath2)" stroke="none"/>
      <path fill="none" d="M209.644 703.7911 L209.644 725.8234" clip-path="url(#clipPath2)"/>
      <path d="M209.644 733.8234 L214.644 721.8234 L209.644 724.8234 L204.644 721.8234 Z" clip-path="url(#clipPath2)" stroke="none"/>
      <path fill="none" d="M209.644 773.7911 L209.644 795.8234" clip-path="url(#clipPath2)"/>
      <path d="M209.644 803.8234 L214.644 791.8234 L209.644 794.8234 L204.644 791.8234 Z" clip-path="url(#clipPath2)" stroke="none"/>
      <path fill="none" d="M209.644 843.7911 L209.644 865.8234" clip-path="url(#clipPath2)"/>
      <path d="M209.644 873.8234 L214.644 861.8234 L209.644 864.8234 L204.644 861.8234 Z" clip-path="url(#clipPath2)" stroke="none"/>
      <path fill="none" d="M574.938 164.423 L574.938 180.9945" clip-path="url(#clipPath2)"/>
      <path d="M574.938 188.9945 L579.938 176.9945 L574.938 179.9945 L569.938 176.9945 Z" clip-path="url(#clipPath2)" stroke="none"/>
      <path fill="none" d="M574.938 228.9511 L574.938 250.9834" clip-path="url(#clipPath2)"/>
      <path d="M574.938 258.9834 L579.938 246.9834 L574.938 249.9834 L569.938 246.9834 Z" clip-path="url(#clipPath2)" stroke="none"/>
      <path fill="none" d="M574.938 298.975 L574.938 320.9548" clip-path="url(#clipPath2)"/>
      <path d="M574.938 328.9548 L579.938 316.9548 L574.938 319.9548 L569.938 316.9548 Z" clip-path="url(#clipPath2)" stroke="none"/>
      <path fill="none" d="M480.8334 358.876 L439.644 358.876 L439.644 410.777" clip-path="url(#clipPath2)"/>
      <path d="M439.644 418.777 L444.644 406.777 L439.644 409.777 L434.644 406.777 Z" clip-path="url(#clipPath2)" stroke="none"/>
      <path fill="none" d="M668.9958 358.876 L715.288 358.876 L715.288 410.777" clip-path="url(#clipPath2)"/>
      <path d="M715.288 418.777 L720.288 406.777 L715.288 409.777 L710.288 406.777 Z" clip-path="url(#clipPath2)" stroke="none"/>
      <text x="693.1729" xml:space="preserve" y="354.1955" clip-path="url(#clipPath2)" font-family="sans-serif" stroke="none">Да</text>
      <path fill="none" d="M715.288 458.8098 L715.288 476.4 L577.466 476.4 L577.466 480.8038" clip-path="url(#clipPath2)"/>
      <path d="M577.466 488.8038 L582.466 476.8038 L577.466 479.8038 L572.466 476.8038 Z" clip-path="url(#clipPath2)" stroke="none"/>
      <path fill="none" d="M439.644 458.8098 L439.644 476.4 L577.466 476.4 L577.466 480.8038" clip-path="url(#clipPath2)"/>
      <path d="M577.466 488.8038 L582.466 476.8038 L577.466 479.8038 L572.466 476.8038 Z" clip-path="url(#clipPath2)" stroke="none"/>
      <path fill="none" d="M483.3527 525.0648 L439.644 525.0648 L439.644 583.3287" clip-path="url(#clipPath2)"/>
      <path d="M439.644 591.3287 L444.644 579.3287 L439.644 582.3287 L434.644 579.3287 Z" clip-path="url(#clipPath2)" stroke="none"/>
      <path fill="none" d="M671.5793 525.0648 L715.288 525.0648 L715.288 583.3287" clip-path="url(#clipPath2)"/>
      <path d="M715.288 591.3287 L720.288 579.3287 L715.288 582.3287 L710.288 579.3287 Z" clip-path="url(#clipPath2)" stroke="none"/>
      <text x="692.7349" xml:space="preserve" y="521.1263" clip-path="url(#clipPath2)" font-family="sans-serif" stroke="none">Да</text>
      <path fill="none" d="M715.288 663.84 L715.288 677.4108 L577.466 677.4108 L577.466 685.8963" clip-path="url(#clipPath2)"/>
      <path d="M577.466 693.8963 L582.466 681.8963 L577.466 684.8963 L572.466 681.8963 Z" clip-path="url(#clipPath2)" stroke="none"/>
      <path fill="none" d="M439.644 663.84 L439.644 677.4108 L577.466 677.4108 L577.466 685.8963" clip-path="url(#clipPath2)"/>
      <path d="M577.466 693.8963 L582.466 681.8963 L577.466 684.8963 L572.466 681.8963 Z" clip-path="url(#clipPath2)" stroke="none"/>
      <path fill="none" d="M577.466 733.8663 L577.466 755.8986" clip-path="url(#clipPath2)"/>
      <path d="M577.466 763.8986 L582.466 751.8986 L577.466 754.8986 L572.466 751.8986 Z" clip-path="url(#clipPath2)" stroke="none"/>
      <path fill="none" d="M577.466 803.8663 L577.466 825.8986" clip-path="url(#clipPath2)"/>
      <path d="M577.466 833.8986 L582.466 821.8986 L577.466 824.8986 L572.466 821.8986 Z" clip-path="url(#clipPath2)" stroke="none"/>
      <path fill="none" d="M577.466 873.8663 L577.466 895.8986" clip-path="url(#clipPath2)"/>
      <path d="M577.466 903.8986 L582.466 891.8986 L577.466 894.8986 L572.466 891.8986 Z" clip-path="url(#clipPath2)" stroke="none"/>
    </g>
  </g>
</svg>
