<?xml version="1.0" encoding="UTF-8"?><svg xmlns="http://www.w3.org/2000/svg" xmlns:xlink="http://www.w3.org/1999/xlink" fill-opacity="1" color-rendering="auto" color-interpolation="auto" text-rendering="auto" stroke="black" stroke-linecap="square" width="676" stroke-miterlimit="10" shape-rendering="auto" stroke-opacity="1" fill="black" stroke-dasharray="none" font-weight="normal" stroke-width="1" height="805" font-family="'Dialog'" font-style="normal" stroke-linejoin="miter" font-size="12px" stroke-dashoffset="0" image-rendering="auto">
  <!--Generated by ySVG 2.6-->
  <defs id="genericDefs"/>
  <g>
    <defs id="defs1">
      <linearGradient x1="873" gradientUnits="userSpaceOnUse" x2="1073" y1="177" y2="217" id="linearGradient1" spreadMethod="reflect">
        <stop stop-opacity="1" stop-color="white" offset="0%"/>
        <stop stop-opacity="1" stop-color="white" offset="100%"/>
      </linearGradient>
      <linearGradient x1="873" gradientUnits="userSpaceOnUse" x2="1073" y1="241.546" y2="281.546" id="linearGradient2" spreadMethod="reflect">
        <stop stop-opacity="1" stop-color="white" offset="0%"/>
        <stop stop-opacity="1" stop-color="white" offset="100%"/>
      </linearGradient>
      <linearGradient x1="873" gradientUnits="userSpaceOnUse" x2="1073" y1="311.546" y2="351.546" id="linearGradient3" spreadMethod="reflect">
        <stop stop-opacity="1" stop-color="white" offset="0%"/>
        <stop stop-opacity="1" stop-color="white" offset="100%"/>
      </linearGradient>
      <linearGradient x1="878.92" gradientUnits="userSpaceOnUse" x2="1067.08" y1="381.546" y2="441.386" id="linearGradient4" spreadMethod="reflect">
        <stop stop-opacity="1" stop-color="white" offset="0%"/>
        <stop stop-opacity="1" stop-color="white" offset="100%"/>
      </linearGradient>
      <linearGradient x1="1029.2" gradientUnits="userSpaceOnUse" x2="1229.2" y1="471.386" y2="511.386" id="linearGradient5" spreadMethod="reflect">
        <stop stop-opacity="1" stop-color="white" offset="0%"/>
        <stop stop-opacity="1" stop-color="white" offset="100%"/>
      </linearGradient>
      <linearGradient x1="732.48" gradientUnits="userSpaceOnUse" x2="932.48" y1="471.386" y2="511.386" id="linearGradient6" spreadMethod="reflect">
        <stop stop-opacity="1" stop-color="white" offset="0%"/>
        <stop stop-opacity="1" stop-color="white" offset="100%"/>
      </linearGradient>
      <linearGradient x1="732.48" gradientUnits="userSpaceOnUse" x2="932.48" y1="541.386" y2="581.386" id="linearGradient7" spreadMethod="reflect">
        <stop stop-opacity="1" stop-color="white" offset="0%"/>
        <stop stop-opacity="1" stop-color="white" offset="100%"/>
      </linearGradient>
      <linearGradient x1="738.4" gradientUnits="userSpaceOnUse" x2="926.56" y1="611.386" y2="671.226" id="linearGradient8" spreadMethod="reflect">
        <stop stop-opacity="1" stop-color="white" offset="0%"/>
        <stop stop-opacity="1" stop-color="white" offset="100%"/>
      </linearGradient>
      <linearGradient x1="873" gradientUnits="userSpaceOnUse" x2="1073" y1="701.226" y2="741.226" id="linearGradient9" spreadMethod="reflect">
        <stop stop-opacity="1" stop-color="white" offset="0%"/>
        <stop stop-opacity="1" stop-color="white" offset="100%"/>
      </linearGradient>
      <linearGradient x1="584.536" gradientUnits="userSpaceOnUse" x2="784.536" y1="701.226" y2="741.226" id="linearGradient10" spreadMethod="reflect">
        <stop stop-opacity="1" stop-color="white" offset="0%"/>
        <stop stop-opacity="1" stop-color="white" offset="100%"/>
      </linearGradient>
      <linearGradient x1="732.48" gradientUnits="userSpaceOnUse" x2="932.48" y1="771.226" y2="811.226" id="linearGradient11" spreadMethod="reflect">
        <stop stop-opacity="1" stop-color="white" offset="0%"/>
        <stop stop-opacity="1" stop-color="white" offset="100%"/>
      </linearGradient>
      <linearGradient x1="873" gradientUnits="userSpaceOnUse" x2="1073" y1="841.226" y2="881.226" id="linearGradient12" spreadMethod="reflect">
        <stop stop-opacity="1" stop-color="white" offset="0%"/>
        <stop stop-opacity="1" stop-color="white" offset="100%"/>
      </linearGradient>
      <linearGradient x1="873" gradientUnits="userSpaceOnUse" x2="1073" y1="911.226" y2="951.226" id="linearGradient13" spreadMethod="reflect">
        <stop stop-opacity="1" stop-color="white" offset="0%"/>
        <stop stop-opacity="1" stop-color="white" offset="100%"/>
      </linearGradient>
      <clipPath clipPathUnits="userSpaceOnUse" id="clipPath1">
        <path d="M0 0 L676 0 L676 805 L0 805 L0 0 Z"/>
      </clipPath>
      <clipPath clipPathUnits="userSpaceOnUse" id="clipPath2">
        <path d="M569 162 L1245 162 L1245 967 L569 967 L569 162 Z"/>
      </clipPath>
    </defs>
    <g fill="white" text-rendering="geometricPrecision" shape-rendering="geometricPrecision" transform="translate(-569,-162)" stroke="white">
      <rect x="569" width="676" height="805" y="162" clip-path="url(#clipPath2)" stroke="none"/>
    </g>
    <g fill="url(#linearGradient1)" text-rendering="geometricPrecision" shape-rendering="geometricPrecision" transform="matrix(1,0,0,1,-569,-162)" stroke="url(#linearGradient1)">
      <rect x="873" y="177" clip-path="url(#clipPath2)" width="200" rx="20" ry="20" height="40" stroke="none"/>
    </g>
    <g text-rendering="geometricPrecision" stroke-miterlimit="1.45" shape-rendering="geometricPrecision" transform="matrix(1,0,0,1,-569,-162)" stroke-linecap="butt">
      <rect x="873" y="177" clip-path="url(#clipPath2)" fill="none" width="200" rx="20" ry="20" height="40"/>
      <text x="940.0469" xml:space="preserve" y="201.1543" clip-path="url(#clipPath2)" font-family="sans-serif" stroke="none">Начало РЛ</text>
    </g>
    <g fill="url(#linearGradient2)" text-rendering="geometricPrecision" shape-rendering="geometricPrecision" transform="matrix(1,0,0,1,-569,-162)" stroke="url(#linearGradient2)">
      <path d="M873 241.546 L1073 241.546 L1073 281.546 L873 281.546 Z" stroke="none" clip-path="url(#clipPath2)"/>
    </g>
    <g text-rendering="geometricPrecision" stroke-miterlimit="1.45" shape-rendering="geometricPrecision" transform="matrix(1,0,0,1,-569,-162)" stroke-linecap="butt">
      <path fill="none" d="M873 241.546 L1073 241.546 L1073 281.546 L873 281.546 Z" clip-path="url(#clipPath2)"/>
      <text x="939.5693" xml:space="preserve" y="265.7003" clip-path="url(#clipPath2)" font-family="sans-serif" stroke="none">n = len(s1)</text>
    </g>
    <g fill="url(#linearGradient3)" text-rendering="geometricPrecision" shape-rendering="geometricPrecision" transform="matrix(1,0,0,1,-569,-162)" stroke="url(#linearGradient3)">
      <path d="M873 311.546 L1073 311.546 L1073 351.546 L873 351.546 Z" stroke="none" clip-path="url(#clipPath2)"/>
    </g>
    <g text-rendering="geometricPrecision" stroke-miterlimit="1.45" shape-rendering="geometricPrecision" transform="matrix(1,0,0,1,-569,-162)" stroke-linecap="butt">
      <path fill="none" d="M873 311.546 L1073 311.546 L1073 351.546 L873 351.546 Z" clip-path="url(#clipPath2)"/>
      <text x="937.5273" xml:space="preserve" y="335.7003" clip-path="url(#clipPath2)" font-family="sans-serif" stroke="none">m = len(s2)</text>
    </g>
    <g fill="url(#linearGradient4)" text-rendering="geometricPrecision" shape-rendering="geometricPrecision" transform="matrix(1,0,0,1,-569,-162)" stroke="url(#linearGradient4)">
      <path d="M973 381.546 L1067.08 411.466 L973 441.386 L878.92 411.466 Z" stroke="none" clip-path="url(#clipPath2)"/>
    </g>
    <g text-rendering="geometricPrecision" stroke-miterlimit="1.45" shape-rendering="geometricPrecision" transform="matrix(1,0,0,1,-569,-162)" stroke-linecap="butt">
      <path fill="none" d="M973 381.546 L1067.08 411.466 L973 441.386 L878.92 411.466 Z" clip-path="url(#clipPath2)"/>
      <text x="920.1221" xml:space="preserve" y="415.6203" clip-path="url(#clipPath2)" font-family="sans-serif" stroke="none">n == 0 || m == 0</text>
    </g>
    <g fill="url(#linearGradient5)" text-rendering="geometricPrecision" shape-rendering="geometricPrecision" transform="matrix(1,0,0,1,-569,-162)" stroke="url(#linearGradient5)">
      <path d="M1029.2 471.386 L1229.2 471.386 L1229.2 511.386 L1029.2 511.386 Z" stroke="none" clip-path="url(#clipPath2)"/>
    </g>
    <g text-rendering="geometricPrecision" stroke-miterlimit="1.45" shape-rendering="geometricPrecision" transform="matrix(1,0,0,1,-569,-162)" stroke-linecap="butt">
      <path fill="none" d="M1029.2 471.386 L1229.2 471.386 L1229.2 511.386 L1029.2 511.386 Z" clip-path="url(#clipPath2)"/>
      <text x="1077.8162" xml:space="preserve" y="495.5403" clip-path="url(#clipPath2)" font-family="sans-serif" stroke="none">res = max(m, m)</text>
    </g>
    <g fill="url(#linearGradient6)" text-rendering="geometricPrecision" shape-rendering="geometricPrecision" transform="matrix(1,0,0,1,-569,-162)" stroke="url(#linearGradient6)">
      <path d="M732.48 471.386 L932.48 471.386 L932.48 511.386 L732.48 511.386 Z" stroke="none" clip-path="url(#clipPath2)"/>
    </g>
    <g text-rendering="geometricPrecision" stroke-miterlimit="1.45" shape-rendering="geometricPrecision" transform="matrix(1,0,0,1,-569,-162)" stroke-linecap="butt">
      <path fill="none" d="M732.48 471.386 L932.48 471.386 L932.48 511.386 L732.48 511.386 Z" clip-path="url(#clipPath2)"/>
      <text x="750.7974" xml:space="preserve" y="495.5403" clip-path="url(#clipPath2)" font-family="sans-serif" stroke="none">insert=РЛ(s1[:n], s2[:m-1])</text>
    </g>
    <g fill="url(#linearGradient7)" text-rendering="geometricPrecision" shape-rendering="geometricPrecision" transform="matrix(1,0,0,1,-569,-162)" stroke="url(#linearGradient7)">
      <path d="M732.48 541.386 L932.48 541.386 L932.48 581.386 L732.48 581.386 Z" stroke="none" clip-path="url(#clipPath2)"/>
    </g>
    <g text-rendering="geometricPrecision" stroke-miterlimit="1.45" shape-rendering="geometricPrecision" transform="matrix(1,0,0,1,-569,-162)" stroke-linecap="butt">
      <path fill="none" d="M732.48 541.386 L932.48 541.386 L932.48 581.386 L732.48 581.386 Z" clip-path="url(#clipPath2)"/>
      <text x="749.0015" xml:space="preserve" y="565.5403" clip-path="url(#clipPath2)" font-family="sans-serif" stroke="none">delete=РЛ(s1[:n-1], s2[:m])</text>
    </g>
    <g fill="url(#linearGradient8)" text-rendering="geometricPrecision" shape-rendering="geometricPrecision" transform="matrix(1,0,0,1,-569,-162)" stroke="url(#linearGradient8)">
      <path d="M832.48 611.386 L926.56 641.306 L832.48 671.226 L738.4 641.306 Z" stroke="none" clip-path="url(#clipPath2)"/>
    </g>
    <g text-rendering="geometricPrecision" stroke-miterlimit="1.45" shape-rendering="geometricPrecision" transform="matrix(1,0,0,1,-569,-162)" stroke-linecap="butt">
      <path fill="none" d="M832.48 611.386 L926.56 641.306 L832.48 671.226 L738.4 641.306 Z" clip-path="url(#clipPath2)"/>
      <text x="787.4331" xml:space="preserve" y="638.476" clip-path="url(#clipPath2)" font-family="sans-serif" stroke="none">s1[n-1] == 0 ||</text>
      <text x="791.7749" xml:space="preserve" y="652.4447" clip-path="url(#clipPath2)" font-family="sans-serif" stroke="none"> s2[m-1 == 0</text>
    </g>
    <g fill="url(#linearGradient9)" text-rendering="geometricPrecision" shape-rendering="geometricPrecision" transform="matrix(1,0,0,1,-569,-162)" stroke="url(#linearGradient9)">
      <path d="M873 701.226 L1073 701.226 L1073 741.226 L873 741.226 Z" stroke="none" clip-path="url(#clipPath2)"/>
    </g>
    <g text-rendering="geometricPrecision" stroke-miterlimit="1.45" shape-rendering="geometricPrecision" transform="matrix(1,0,0,1,-569,-162)" stroke-linecap="butt">
      <path fill="none" d="M873 701.226 L1073 701.226 L1073 741.226 L873 741.226 Z" clip-path="url(#clipPath2)"/>
      <text x="880.1406" xml:space="preserve" y="725.3803" clip-path="url(#clipPath2)" font-family="sans-serif" stroke="none">replace=РЛ(s1[:n-1], s2[:m-1])</text>
    </g>
    <g fill="url(#linearGradient10)" text-rendering="geometricPrecision" shape-rendering="geometricPrecision" transform="matrix(1,0,0,1,-569,-162)" stroke="url(#linearGradient10)">
      <path d="M584.536 701.226 L784.536 701.226 L784.536 741.226 L584.536 741.226 Z" stroke="none" clip-path="url(#clipPath2)"/>
    </g>
    <g text-rendering="geometricPrecision" stroke-miterlimit="1.45" shape-rendering="geometricPrecision" transform="matrix(1,0,0,1,-569,-162)" stroke-linecap="butt">
      <path fill="none" d="M584.536 701.226 L784.536 701.226 L784.536 741.226 L584.536 741.226 Z" clip-path="url(#clipPath2)"/>
      <text x="619.4911" xml:space="preserve" y="718.3959" clip-path="url(#clipPath2)" font-family="sans-serif" stroke="none">replace=РЛ(s1[:n-1], </text>
      <text x="647.8768" xml:space="preserve" y="732.3647" clip-path="url(#clipPath2)" font-family="sans-serif" stroke="none">s2[:m-1]+1)</text>
    </g>
    <g fill="url(#linearGradient11)" text-rendering="geometricPrecision" shape-rendering="geometricPrecision" transform="matrix(1,0,0,1,-569,-162)" stroke="url(#linearGradient11)">
      <path d="M732.48 771.226 L932.48 771.226 L932.48 811.226 L732.48 811.226 Z" stroke="none" clip-path="url(#clipPath2)"/>
    </g>
    <g text-rendering="geometricPrecision" stroke-miterlimit="1.45" shape-rendering="geometricPrecision" transform="matrix(1,0,0,1,-569,-162)" stroke-linecap="butt">
      <path fill="none" d="M732.48 771.226 L932.48 771.226 L932.48 811.226 L732.48 811.226 Z" clip-path="url(#clipPath2)"/>
      <text x="814.354" xml:space="preserve" y="788.3959" clip-path="url(#clipPath2)" font-family="sans-serif" stroke="none">res = </text>
      <text x="750.5454" xml:space="preserve" y="802.3647" clip-path="url(#clipPath2)" font-family="sans-serif" stroke="none">min(insert, delete, replace)</text>
    </g>
    <g fill="url(#linearGradient12)" text-rendering="geometricPrecision" shape-rendering="geometricPrecision" transform="matrix(1,0,0,1,-569,-162)" stroke="url(#linearGradient12)">
      <path d="M883.2 841.226 L1073 841.226 L1062.8 881.226 L873 881.226 Z" stroke="none" clip-path="url(#clipPath2)"/>
    </g>
    <g text-rendering="geometricPrecision" stroke-miterlimit="1.45" shape-rendering="geometricPrecision" transform="matrix(1,0,0,1,-569,-162)" stroke-linecap="butt">
      <path fill="none" d="M883.2 841.226 L1073 841.226 L1062.8 881.226 L873 881.226 Z" clip-path="url(#clipPath2)"/>
      <text x="936.3145" xml:space="preserve" y="865.3803" clip-path="url(#clipPath2)" font-family="sans-serif" stroke="none">Возврат res</text>
    </g>
    <g fill="url(#linearGradient13)" text-rendering="geometricPrecision" shape-rendering="geometricPrecision" transform="matrix(1,0,0,1,-569,-162)" stroke="url(#linearGradient13)">
      <rect x="873" y="911.226" clip-path="url(#clipPath2)" width="200" rx="20" ry="20" height="40" stroke="none"/>
    </g>
    <g text-rendering="geometricPrecision" stroke-miterlimit="1.45" shape-rendering="geometricPrecision" transform="matrix(1,0,0,1,-569,-162)" stroke-linecap="butt">
      <rect x="873" y="911.226" clip-path="url(#clipPath2)" fill="none" width="200" rx="20" ry="20" height="40"/>
      <text x="943.334" xml:space="preserve" y="935.3803" clip-path="url(#clipPath2)" font-family="sans-serif" stroke="none">Конец РЛ</text>
    </g>
    <g text-rendering="geometricPrecision" stroke-miterlimit="1.45" shape-rendering="geometricPrecision" transform="matrix(1,0,0,1,-569,-162)" stroke-linecap="butt">
      <path fill="none" d="M973 217.013 L973 233.5845" clip-path="url(#clipPath2)"/>
    </g>
    <g text-rendering="geometricPrecision" stroke-miterlimit="1.45" shape-rendering="geometricPrecision" transform="matrix(1,0,0,1,-569,-162)" stroke-linecap="butt">
      <path d="M973 241.5845 L978 229.5845 L973 232.5845 L968 229.5845 Z" stroke="none" clip-path="url(#clipPath2)"/>
      <path fill="none" d="M973 281.5411 L973 303.5734" clip-path="url(#clipPath2)"/>
      <path d="M973 311.5734 L978 299.5734 L973 302.5734 L968 299.5734 Z" clip-path="url(#clipPath2)" stroke="none"/>
      <path fill="none" d="M973 351.565 L973 373.5448" clip-path="url(#clipPath2)"/>
      <path d="M973 381.5448 L978 369.5448 L973 372.5448 L968 369.5448 Z" clip-path="url(#clipPath2)" stroke="none"/>
      <path fill="none" d="M1067.0785 411.466 L1129.2 411.466 L1129.2 463.367" clip-path="url(#clipPath2)"/>
      <path d="M1129.2 471.367 L1134.2 459.367 L1129.2 462.367 L1124.2 459.367 Z" clip-path="url(#clipPath2)" stroke="none"/>
      <text x="1102.5779" xml:space="preserve" y="405.3003" clip-path="url(#clipPath2)" font-family="sans-serif" stroke="none">Да</text>
      <path fill="none" d="M878.8969 411.466 L832.48 411.466 L832.48 463.367" clip-path="url(#clipPath2)"/>
      <path d="M832.48 471.367 L837.48 459.367 L832.48 462.367 L827.48 459.367 Z" clip-path="url(#clipPath2)" stroke="none"/>
      <path fill="none" d="M832.48 511.3811 L832.48 533.4134" clip-path="url(#clipPath2)"/>
      <path d="M832.48 541.4134 L837.48 529.4134 L832.48 532.4134 L827.48 529.4134 Z" clip-path="url(#clipPath2)" stroke="none"/>
      <path fill="none" d="M832.48 581.405 L832.48 603.3848" clip-path="url(#clipPath2)"/>
      <path d="M832.48 611.3848 L837.48 599.3848 L832.48 602.3848 L827.48 599.3848 Z" clip-path="url(#clipPath2)" stroke="none"/>
      <path fill="none" d="M926.5831 641.306 L973 641.306 L973 693.207" clip-path="url(#clipPath2)"/>
      <path d="M973 701.207 L978 689.207 L973 692.207 L968 689.207 Z" clip-path="url(#clipPath2)" stroke="none"/>
      <text x="950.1219" xml:space="preserve" y="635.0123" clip-path="url(#clipPath2)" font-family="sans-serif" stroke="none">Да</text>
      <path fill="none" d="M738.3896 641.306 L684.536 641.306 L684.536 693.207" clip-path="url(#clipPath2)"/>
      <path d="M684.536 701.207 L689.536 689.207 L684.536 692.207 L679.536 689.207 Z" clip-path="url(#clipPath2)" stroke="none"/>
      <path fill="none" d="M684.536 741.2469 L684.536 756.5125 L832.48 756.5125 L832.48 763.2589" clip-path="url(#clipPath2)"/>
      <path d="M832.48 771.2589 L837.48 759.2589 L832.48 762.2589 L827.48 759.2589 Z" clip-path="url(#clipPath2)" stroke="none"/>
      <path fill="none" d="M973 741.2222 L973 755.8724 L832.48 756.5125 L832.48 763.2589" clip-path="url(#clipPath2)"/>
      <path d="M832.48 771.2589 L837.48 759.2589 L832.48 762.2589 L827.48 759.2589 Z" clip-path="url(#clipPath2)" stroke="none"/>
      <path fill="none" d="M832.48 811.2327 L832.48 824.538 L973 824.538 L973 833.1981" clip-path="url(#clipPath2)"/>
      <path d="M973 841.1981 L978 829.1981 L973 832.1981 L968 829.1981 Z" clip-path="url(#clipPath2)" stroke="none"/>
      <path fill="none" d="M1129.2 511.354 L1129.2 824.538 L973 824.538 L973 833.1981" clip-path="url(#clipPath2)"/>
      <path d="M973 841.1981 L978 829.1981 L973 832.1981 L968 829.1981 Z" clip-path="url(#clipPath2)" stroke="none"/>
      <path fill="none" d="M973 881.2211 L973 903.2534" clip-path="url(#clipPath2)"/>
      <path d="M973 911.2534 L978 899.2534 L973 902.2534 L968 899.2534 Z" clip-path="url(#clipPath2)" stroke="none"/>
    </g>
  </g>
</svg>
