<?xml version="1.0" encoding="UTF-8"?><svg xmlns="http://www.w3.org/2000/svg" xmlns:xlink="http://www.w3.org/1999/xlink" fill-opacity="1" color-rendering="auto" color-interpolation="auto" text-rendering="auto" stroke="black" stroke-linecap="square" width="740" stroke-miterlimit="10" shape-rendering="auto" stroke-opacity="1" fill="black" stroke-dasharray="none" font-weight="normal" stroke-width="1" height="765" font-family="'Dialog'" font-style="normal" stroke-linejoin="miter" font-size="12px" stroke-dashoffset="0" image-rendering="auto">
  <!--Generated by ySVG 2.6-->
  <defs id="genericDefs"/>
  <g>
    <defs id="defs1">
      <linearGradient x1="957.072" gradientUnits="userSpaceOnUse" x2="1157.072" y1="588" y2="628" id="linearGradient1" spreadMethod="reflect">
        <stop stop-opacity="1" stop-color="white" offset="0%"/>
        <stop stop-opacity="1" stop-color="white" offset="100%"/>
      </linearGradient>
      <linearGradient x1="957.072" gradientUnits="userSpaceOnUse" x2="1157.072" y1="652.546" y2="692.546" id="linearGradient2" spreadMethod="reflect">
        <stop stop-opacity="1" stop-color="white" offset="0%"/>
        <stop stop-opacity="1" stop-color="white" offset="100%"/>
      </linearGradient>
      <linearGradient x1="957.072" gradientUnits="userSpaceOnUse" x2="1157.072" y1="722.546" y2="762.546" id="linearGradient3" spreadMethod="reflect">
        <stop stop-opacity="1" stop-color="white" offset="0%"/>
        <stop stop-opacity="1" stop-color="white" offset="100%"/>
      </linearGradient>
      <linearGradient x1="957.072" gradientUnits="userSpaceOnUse" x2="1157.072" y1="792.546" y2="832.546" id="linearGradient4" spreadMethod="reflect">
        <stop stop-opacity="1" stop-color="white" offset="0%"/>
        <stop stop-opacity="1" stop-color="white" offset="100%"/>
      </linearGradient>
      <linearGradient x1="957.072" gradientUnits="userSpaceOnUse" x2="1157.072" y1="862.546" y2="902.546" id="linearGradient5" spreadMethod="reflect">
        <stop stop-opacity="1" stop-color="white" offset="0%"/>
        <stop stop-opacity="1" stop-color="white" offset="100%"/>
      </linearGradient>
      <linearGradient x1="957.072" gradientUnits="userSpaceOnUse" x2="1157.072" y1="932.546" y2="972.546" id="linearGradient6" spreadMethod="reflect">
        <stop stop-opacity="1" stop-color="white" offset="0%"/>
        <stop stop-opacity="1" stop-color="white" offset="100%"/>
      </linearGradient>
      <linearGradient x1="957.072" gradientUnits="userSpaceOnUse" x2="1157.072" y1="1002.546" y2="1042.546" id="linearGradient7" spreadMethod="reflect">
        <stop stop-opacity="1" stop-color="white" offset="0%"/>
        <stop stop-opacity="1" stop-color="white" offset="100%"/>
      </linearGradient>
      <linearGradient x1="957.072" gradientUnits="userSpaceOnUse" x2="1157.072" y1="1072.546" y2="1112.546" id="linearGradient8" spreadMethod="reflect">
        <stop stop-opacity="1" stop-color="white" offset="0%"/>
        <stop stop-opacity="1" stop-color="white" offset="100%"/>
      </linearGradient>
      <linearGradient x1="957.072" gradientUnits="userSpaceOnUse" x2="1157.072" y1="1142.546" y2="1182.546" id="linearGradient9" spreadMethod="reflect">
        <stop stop-opacity="1" stop-color="white" offset="0%"/>
        <stop stop-opacity="1" stop-color="white" offset="100%"/>
      </linearGradient>
      <linearGradient x1="957.072" gradientUnits="userSpaceOnUse" x2="1157.072" y1="1212.546" y2="1252.546" id="linearGradient10" spreadMethod="reflect">
        <stop stop-opacity="1" stop-color="white" offset="0%"/>
        <stop stop-opacity="1" stop-color="white" offset="100%"/>
      </linearGradient>
      <linearGradient x1="1017.072" gradientUnits="userSpaceOnUse" x2="1097.072" y1="1282.546" y2="1322.546" id="linearGradient11" spreadMethod="reflect">
        <stop stop-opacity="1" stop-color="white" offset="0%"/>
        <stop stop-opacity="1" stop-color="white" offset="100%"/>
      </linearGradient>
      <linearGradient x1="1393.344" gradientUnits="userSpaceOnUse" x2="1473.344" y1="648.08" y2="688.08" id="linearGradient12" spreadMethod="reflect">
        <stop stop-opacity="1" stop-color="white" offset="0%"/>
        <stop stop-opacity="1" stop-color="white" offset="100%"/>
      </linearGradient>
      <linearGradient x1="1333.344" gradientUnits="userSpaceOnUse" x2="1533.344" y1="712.626" y2="752.626" id="linearGradient13" spreadMethod="reflect">
        <stop stop-opacity="1" stop-color="white" offset="0%"/>
        <stop stop-opacity="1" stop-color="white" offset="100%"/>
      </linearGradient>
      <linearGradient x1="1333.344" gradientUnits="userSpaceOnUse" x2="1533.344" y1="782.626" y2="822.626" id="linearGradient14" spreadMethod="reflect">
        <stop stop-opacity="1" stop-color="white" offset="0%"/>
        <stop stop-opacity="1" stop-color="white" offset="100%"/>
      </linearGradient>
      <linearGradient x1="1339.264" gradientUnits="userSpaceOnUse" x2="1527.424" y1="852.626" y2="912.466" id="linearGradient15" spreadMethod="reflect">
        <stop stop-opacity="1" stop-color="white" offset="0%"/>
        <stop stop-opacity="1" stop-color="white" offset="100%"/>
      </linearGradient>
      <linearGradient x1="1200.5439" gradientUnits="userSpaceOnUse" x2="1400.5439" y1="942.466" y2="1000.066" id="linearGradient16" spreadMethod="reflect">
        <stop stop-opacity="1" stop-color="white" offset="0%"/>
        <stop stop-opacity="1" stop-color="white" offset="100%"/>
      </linearGradient>
      <linearGradient x1="1466.488" gradientUnits="userSpaceOnUse" x2="1666.488" y1="942.466" y2="1000.066" id="linearGradient17" spreadMethod="reflect">
        <stop stop-opacity="1" stop-color="white" offset="0%"/>
        <stop stop-opacity="1" stop-color="white" offset="100%"/>
      </linearGradient>
      <linearGradient x1="1333.344" gradientUnits="userSpaceOnUse" x2="1533.344" y1="1030.066" y2="1070.066" id="linearGradient18" spreadMethod="reflect">
        <stop stop-opacity="1" stop-color="white" offset="0%"/>
        <stop stop-opacity="1" stop-color="white" offset="100%"/>
      </linearGradient>
      <linearGradient x1="1333.344" gradientUnits="userSpaceOnUse" x2="1533.344" y1="1100.066" y2="1140.066" id="linearGradient19" spreadMethod="reflect">
        <stop stop-opacity="1" stop-color="white" offset="0%"/>
        <stop stop-opacity="1" stop-color="white" offset="100%"/>
      </linearGradient>
      <linearGradient x1="1333.344" gradientUnits="userSpaceOnUse" x2="1533.344" y1="1170.066" y2="1210.066" id="linearGradient20" spreadMethod="reflect">
        <stop stop-opacity="1" stop-color="white" offset="0%"/>
        <stop stop-opacity="1" stop-color="white" offset="100%"/>
      </linearGradient>
      <linearGradient x1="1333.344" gradientUnits="userSpaceOnUse" x2="1533.344" y1="1240.066" y2="1280.066" id="linearGradient21" spreadMethod="reflect">
        <stop stop-opacity="1" stop-color="white" offset="0%"/>
        <stop stop-opacity="1" stop-color="white" offset="100%"/>
      </linearGradient>
      <clipPath clipPathUnits="userSpaceOnUse" id="clipPath1">
        <path d="M0 0 L740 0 L740 765 L0 765 L0 0 Z"/>
      </clipPath>
      <clipPath clipPathUnits="userSpaceOnUse" id="clipPath2">
        <path d="M942 573 L1682 573 L1682 1338 L942 1338 L942 573 Z"/>
      </clipPath>
    </defs>
    <g fill="white" text-rendering="geometricPrecision" shape-rendering="geometricPrecision" transform="translate(-942,-573)" stroke="white">
      <rect x="942" width="740" height="765" y="573" clip-path="url(#clipPath2)" stroke="none"/>
    </g>
    <g fill="url(#linearGradient1)" text-rendering="geometricPrecision" shape-rendering="geometricPrecision" transform="matrix(1,0,0,1,-942,-573)" stroke="url(#linearGradient1)">
      <rect x="957.072" y="588" clip-path="url(#clipPath2)" width="200" rx="20" ry="20" height="40" stroke="none"/>
    </g>
    <g text-rendering="geometricPrecision" stroke-miterlimit="1.45" shape-rendering="geometricPrecision" transform="matrix(1,0,0,1,-942,-573)" stroke-linecap="butt">
      <rect x="957.072" y="588" clip-path="url(#clipPath2)" fill="none" width="200" rx="20" ry="20" height="40"/>
      <text x="1019.8591" xml:space="preserve" y="612.1543" clip-path="url(#clipPath2)" font-family="sans-serif" stroke="none">Начало РЛК</text>
    </g>
    <g fill="url(#linearGradient2)" text-rendering="geometricPrecision" shape-rendering="geometricPrecision" transform="matrix(1,0,0,1,-942,-573)" stroke="url(#linearGradient2)">
      <path d="M957.072 652.546 L1157.072 652.546 L1157.072 692.546 L957.072 692.546 Z" stroke="none" clip-path="url(#clipPath2)"/>
    </g>
    <g text-rendering="geometricPrecision" stroke-miterlimit="1.45" shape-rendering="geometricPrecision" transform="matrix(1,0,0,1,-942,-573)" stroke-linecap="butt">
      <path fill="none" d="M957.072 652.546 L1157.072 652.546 L1157.072 692.546 L957.072 692.546 Z" clip-path="url(#clipPath2)"/>
      <text x="1023.6414" xml:space="preserve" y="676.7003" clip-path="url(#clipPath2)" font-family="sans-serif" stroke="none">n = len(s1)</text>
    </g>
    <g fill="url(#linearGradient3)" text-rendering="geometricPrecision" shape-rendering="geometricPrecision" transform="matrix(1,0,0,1,-942,-573)" stroke="url(#linearGradient3)">
      <path d="M957.072 722.546 L1157.072 722.546 L1157.072 762.546 L957.072 762.546 Z" stroke="none" clip-path="url(#clipPath2)"/>
    </g>
    <g text-rendering="geometricPrecision" stroke-miterlimit="1.45" shape-rendering="geometricPrecision" transform="matrix(1,0,0,1,-942,-573)" stroke-linecap="butt">
      <path fill="none" d="M957.072 722.546 L1157.072 722.546 L1157.072 762.546 L957.072 762.546 Z" clip-path="url(#clipPath2)"/>
      <text x="1021.5994" xml:space="preserve" y="746.7003" clip-path="url(#clipPath2)" font-family="sans-serif" stroke="none">m = len(s2)</text>
    </g>
    <g fill="url(#linearGradient4)" text-rendering="geometricPrecision" shape-rendering="geometricPrecision" transform="matrix(1,0,0,1,-942,-573)" stroke="url(#linearGradient4)">
      <path d="M957.072 792.546 L1157.072 792.546 L1157.072 832.546 L957.072 832.546 Z" stroke="none" clip-path="url(#clipPath2)"/>
    </g>
    <g text-rendering="geometricPrecision" stroke-miterlimit="1.45" shape-rendering="geometricPrecision" transform="matrix(1,0,0,1,-942,-573)" stroke-linecap="butt">
      <path fill="none" d="M957.072 792.546 L1157.072 792.546 L1157.072 832.546 L957.072 832.546 Z" clip-path="url(#clipPath2)"/>
      <text x="1003.2947" xml:space="preserve" y="809.7159" clip-path="url(#clipPath2)" font-family="sans-serif" stroke="none">cache = матрица</text>
      <text x="964.822" xml:space="preserve" y="823.6847" clip-path="url(#clipPath2)" font-family="sans-serif" stroke="none"> целых размера (n+1)x(m+1)</text>
    </g>
    <g fill="url(#linearGradient5)" text-rendering="geometricPrecision" shape-rendering="geometricPrecision" transform="matrix(1,0,0,1,-942,-573)" stroke="url(#linearGradient5)">
      <path d="M967.072 862.546 L1147.072 862.546 L1157.072 872.546 L1157.072 902.546 L957.072 902.546 L957.072 872.546 Z" stroke="none" clip-path="url(#clipPath2)"/>
    </g>
    <g text-rendering="geometricPrecision" stroke-miterlimit="1.45" shape-rendering="geometricPrecision" transform="matrix(1,0,0,1,-942,-573)" stroke-linecap="butt">
      <path fill="none" d="M967.072 862.546 L1147.072 862.546 L1157.072 872.546 L1157.072 902.546 L957.072 902.546 L957.072 872.546 Z" clip-path="url(#clipPath2)"/>
      <text x="1003.4558" xml:space="preserve" y="879.7159" clip-path="url(#clipPath2)" font-family="sans-serif" stroke="none">Цикл по i от 0 до</text>
      <text x="1009.1628" xml:space="preserve" y="893.6847" clip-path="url(#clipPath2)" font-family="sans-serif" stroke="none"> n+1 с шагом 1</text>
    </g>
    <g fill="url(#linearGradient6)" text-rendering="geometricPrecision" shape-rendering="geometricPrecision" transform="matrix(1,0,0,1,-942,-573)" stroke="url(#linearGradient6)">
      <path d="M957.072 932.546 L1157.072 932.546 L1157.072 972.546 L957.072 972.546 Z" stroke="none" clip-path="url(#clipPath2)"/>
    </g>
    <g text-rendering="geometricPrecision" stroke-miterlimit="1.45" shape-rendering="geometricPrecision" transform="matrix(1,0,0,1,-942,-573)" stroke-linecap="butt">
      <path fill="none" d="M957.072 932.546 L1157.072 932.546 L1157.072 972.546 L957.072 972.546 Z" clip-path="url(#clipPath2)"/>
      <text x="1013.947" xml:space="preserve" y="956.7003" clip-path="url(#clipPath2)" font-family="sans-serif" stroke="none">cache[i][0] = i</text>
    </g>
    <g fill="url(#linearGradient7)" text-rendering="geometricPrecision" shape-rendering="geometricPrecision" transform="matrix(1,0,0,1,-942,-573)" stroke="url(#linearGradient7)">
      <path d="M957.072 1002.546 L1157.072 1002.546 L1157.072 1032.546 L1147.072 1042.546 L967.072 1042.546 L957.072 1032.546 Z" stroke="none" clip-path="url(#clipPath2)"/>
    </g>
    <g text-rendering="geometricPrecision" stroke-miterlimit="1.45" shape-rendering="geometricPrecision" transform="matrix(1,0,0,1,-942,-573)" stroke-linecap="butt">
      <path fill="none" d="M957.072 1002.546 L1157.072 1002.546 L1157.072 1032.546 L1147.072 1042.546 L967.072 1042.546 L957.072 1032.546 Z" clip-path="url(#clipPath2)"/>
      <text x="1003.3416" xml:space="preserve" y="1026.7003" clip-path="url(#clipPath2)" font-family="sans-serif" stroke="none">Конец цикла по i</text>
    </g>
    <g fill="url(#linearGradient8)" text-rendering="geometricPrecision" shape-rendering="geometricPrecision" transform="matrix(1,0,0,1,-942,-573)" stroke="url(#linearGradient8)">
      <path d="M967.072 1072.546 L1147.072 1072.546 L1157.072 1082.546 L1157.072 1112.546 L957.072 1112.546 L957.072 1082.546 Z" stroke="none" clip-path="url(#clipPath2)"/>
    </g>
    <g text-rendering="geometricPrecision" stroke-miterlimit="1.45" shape-rendering="geometricPrecision" transform="matrix(1,0,0,1,-942,-573)" stroke-linecap="butt">
      <path fill="none" d="M967.072 1072.546 L1147.072 1072.546 L1157.072 1082.546 L1157.072 1112.546 L957.072 1112.546 L957.072 1082.546 Z" clip-path="url(#clipPath2)"/>
      <text x="1003.4558" xml:space="preserve" y="1089.7159" clip-path="url(#clipPath2)" font-family="sans-serif" stroke="none">Цикл по i от 0 до</text>
      <text x="1007.1208" xml:space="preserve" y="1103.6847" clip-path="url(#clipPath2)" font-family="sans-serif" stroke="none"> m+1 с шагом 1</text>
    </g>
    <g fill="url(#linearGradient9)" text-rendering="geometricPrecision" shape-rendering="geometricPrecision" transform="matrix(1,0,0,1,-942,-573)" stroke="url(#linearGradient9)">
      <path d="M957.072 1142.546 L1157.072 1142.546 L1157.072 1182.546 L957.072 1182.546 Z" stroke="none" clip-path="url(#clipPath2)"/>
    </g>
    <g text-rendering="geometricPrecision" stroke-miterlimit="1.45" shape-rendering="geometricPrecision" transform="matrix(1,0,0,1,-942,-573)" stroke-linecap="butt">
      <path fill="none" d="M957.072 1142.546 L1157.072 1142.546 L1157.072 1182.546 L957.072 1182.546 Z" clip-path="url(#clipPath2)"/>
      <text x="1013.947" xml:space="preserve" y="1166.7003" clip-path="url(#clipPath2)" font-family="sans-serif" stroke="none">cache[0][i] = i</text>
    </g>
    <g fill="url(#linearGradient10)" text-rendering="geometricPrecision" shape-rendering="geometricPrecision" transform="matrix(1,0,0,1,-942,-573)" stroke="url(#linearGradient10)">
      <path d="M957.072 1212.546 L1157.072 1212.546 L1157.072 1242.546 L1147.072 1252.546 L967.072 1252.546 L957.072 1242.546 Z" stroke="none" clip-path="url(#clipPath2)"/>
    </g>
    <g text-rendering="geometricPrecision" stroke-miterlimit="1.45" shape-rendering="geometricPrecision" transform="matrix(1,0,0,1,-942,-573)" stroke-linecap="butt">
      <path fill="none" d="M957.072 1212.546 L1157.072 1212.546 L1157.072 1242.546 L1147.072 1252.546 L967.072 1252.546 L957.072 1242.546 Z" clip-path="url(#clipPath2)"/>
      <text x="1003.3416" xml:space="preserve" y="1236.7003" clip-path="url(#clipPath2)" font-family="sans-serif" stroke="none">Конец цикла по i</text>
    </g>
    <g fill="url(#linearGradient11)" text-rendering="geometricPrecision" shape-rendering="geometricPrecision" transform="matrix(1,0,0,1,-942,-573)" stroke="url(#linearGradient11)">
      <circle r="20" clip-path="url(#clipPath2)" cx="1057.072" cy="1302.546" stroke="none"/>
    </g>
    <g text-rendering="geometricPrecision" stroke-miterlimit="1.45" shape-rendering="geometricPrecision" transform="matrix(1,0,0,1,-942,-573)" stroke-linecap="butt">
      <circle fill="none" r="20" clip-path="url(#clipPath2)" cx="1057.072" cy="1302.546"/>
      <text x="1052.9675" xml:space="preserve" y="1306.7003" clip-path="url(#clipPath2)" font-family="sans-serif" stroke="none">A</text>
    </g>
    <g fill="url(#linearGradient12)" text-rendering="geometricPrecision" shape-rendering="geometricPrecision" transform="matrix(1,0,0,1,-942,-573)" stroke="url(#linearGradient12)">
      <circle r="20" clip-path="url(#clipPath2)" cx="1433.344" cy="668.08" stroke="none"/>
    </g>
    <g text-rendering="geometricPrecision" stroke-miterlimit="1.45" shape-rendering="geometricPrecision" transform="matrix(1,0,0,1,-942,-573)" stroke-linecap="butt">
      <circle fill="none" r="20" clip-path="url(#clipPath2)" cx="1433.344" cy="668.08"/>
      <text x="1429.2395" xml:space="preserve" y="672.2343" clip-path="url(#clipPath2)" font-family="sans-serif" stroke="none">A</text>
    </g>
    <g fill="url(#linearGradient13)" text-rendering="geometricPrecision" shape-rendering="geometricPrecision" transform="matrix(1,0,0,1,-942,-573)" stroke="url(#linearGradient13)">
      <path d="M1343.344 712.626 L1523.344 712.626 L1533.344 722.626 L1533.344 752.626 L1333.344 752.626 L1333.344 722.626 Z" stroke="none" clip-path="url(#clipPath2)"/>
    </g>
    <g text-rendering="geometricPrecision" stroke-miterlimit="1.45" shape-rendering="geometricPrecision" transform="matrix(1,0,0,1,-942,-573)" stroke-linecap="butt">
      <path fill="none" d="M1343.344 712.626 L1523.344 712.626 L1533.344 722.626 L1533.344 752.626 L1333.344 752.626 L1333.344 722.626 Z" clip-path="url(#clipPath2)"/>
      <text x="1379.7278" xml:space="preserve" y="729.796" clip-path="url(#clipPath2)" font-family="sans-serif" stroke="none">Цикл по i от 1 до</text>
      <text x="1385.4348" xml:space="preserve" y="743.7647" clip-path="url(#clipPath2)" font-family="sans-serif" stroke="none"> n+1 с шагом 1</text>
    </g>
    <g fill="url(#linearGradient14)" text-rendering="geometricPrecision" shape-rendering="geometricPrecision" transform="matrix(1,0,0,1,-942,-573)" stroke="url(#linearGradient14)">
      <path d="M1343.344 782.626 L1523.344 782.626 L1533.344 792.626 L1533.344 822.626 L1333.344 822.626 L1333.344 792.626 Z" stroke="none" clip-path="url(#clipPath2)"/>
    </g>
    <g text-rendering="geometricPrecision" stroke-miterlimit="1.45" shape-rendering="geometricPrecision" transform="matrix(1,0,0,1,-942,-573)" stroke-linecap="butt">
      <path fill="none" d="M1343.344 782.626 L1523.344 782.626 L1533.344 792.626 L1533.344 822.626 L1333.344 822.626 L1333.344 792.626 Z" clip-path="url(#clipPath2)"/>
      <text x="1379.7278" xml:space="preserve" y="799.796" clip-path="url(#clipPath2)" font-family="sans-serif" stroke="none">Цикл по j от 1 до</text>
      <text x="1383.3928" xml:space="preserve" y="813.7647" clip-path="url(#clipPath2)" font-family="sans-serif" stroke="none"> m+1 с шагом 1</text>
    </g>
    <g fill="url(#linearGradient15)" text-rendering="geometricPrecision" shape-rendering="geometricPrecision" transform="matrix(1,0,0,1,-942,-573)" stroke="url(#linearGradient15)">
      <path d="M1433.344 852.626 L1527.424 882.546 L1433.344 912.466 L1339.264 882.546 Z" stroke="none" clip-path="url(#clipPath2)"/>
    </g>
    <g text-rendering="geometricPrecision" stroke-miterlimit="1.45" shape-rendering="geometricPrecision" transform="matrix(1,0,0,1,-942,-573)" stroke-linecap="butt">
      <path fill="none" d="M1433.344 852.626 L1527.424 882.546 L1433.344 912.466 L1339.264 882.546 Z" clip-path="url(#clipPath2)"/>
      <text x="1392.8909" xml:space="preserve" y="886.7003" clip-path="url(#clipPath2)" font-family="sans-serif" stroke="none">s1[i] == s2[j]</text>
    </g>
    <g fill="url(#linearGradient16)" text-rendering="geometricPrecision" shape-rendering="geometricPrecision" transform="matrix(1,0,0,1,-942,-573)" stroke="url(#linearGradient16)">
      <path d="M1200.5439 942.466 L1400.5439 942.466 L1400.5439 1000.066 L1200.5439 1000.066 Z" stroke="none" clip-path="url(#clipPath2)"/>
    </g>
    <g text-rendering="geometricPrecision" stroke-miterlimit="1.45" shape-rendering="geometricPrecision" transform="matrix(1,0,0,1,-942,-573)" stroke-linecap="butt">
      <path fill="none" d="M1200.5439 942.466 L1400.5439 942.466 L1400.5439 1000.066 L1200.5439 1000.066 Z" clip-path="url(#clipPath2)"/>
      <text x="1247.5811" xml:space="preserve" y="954.4672" clip-path="url(#clipPath2)" font-family="sans-serif" stroke="none">cache[i][j] = min(</text>
      <text x="1253.3438" xml:space="preserve" y="968.4359" clip-path="url(#clipPath2)" font-family="sans-serif" stroke="none">cache[i][j-1]+1,</text>
      <text x="1253.3438" xml:space="preserve" y="982.4047" clip-path="url(#clipPath2)" font-family="sans-serif" stroke="none">cache[i-1][j]+1,</text>
      <text x="1246.9277" xml:space="preserve" y="996.3734" clip-path="url(#clipPath2)" font-family="sans-serif" stroke="none">cache[i-1][j-1]+1)</text>
    </g>
    <g fill="url(#linearGradient17)" text-rendering="geometricPrecision" shape-rendering="geometricPrecision" transform="matrix(1,0,0,1,-942,-573)" stroke="url(#linearGradient17)">
      <path d="M1466.488 942.466 L1666.488 942.466 L1666.488 1000.066 L1466.488 1000.066 Z" stroke="none" clip-path="url(#clipPath2)"/>
    </g>
    <g text-rendering="geometricPrecision" stroke-miterlimit="1.45" shape-rendering="geometricPrecision" transform="matrix(1,0,0,1,-942,-573)" stroke-linecap="butt">
      <path fill="none" d="M1466.488 942.466 L1666.488 942.466 L1666.488 1000.066 L1466.488 1000.066 Z" clip-path="url(#clipPath2)"/>
      <text x="1513.5251" xml:space="preserve" y="954.4672" clip-path="url(#clipPath2)" font-family="sans-serif" stroke="none">cache[i][j] = min(</text>
      <text x="1519.2878" xml:space="preserve" y="968.4359" clip-path="url(#clipPath2)" font-family="sans-serif" stroke="none">cache[i][j-1]+1,</text>
      <text x="1519.2878" xml:space="preserve" y="982.4047" clip-path="url(#clipPath2)" font-family="sans-serif" stroke="none">cache[i-1][j]+1,</text>
      <text x="1521.7166" xml:space="preserve" y="996.3734" clip-path="url(#clipPath2)" font-family="sans-serif" stroke="none">cache[i-1][j-1])</text>
    </g>
    <g fill="url(#linearGradient18)" text-rendering="geometricPrecision" shape-rendering="geometricPrecision" transform="matrix(1,0,0,1,-942,-573)" stroke="url(#linearGradient18)">
      <path d="M1333.344 1030.066 L1533.344 1030.066 L1533.344 1060.066 L1523.344 1070.066 L1343.344 1070.066 L1333.344 1060.066 Z" stroke="none" clip-path="url(#clipPath2)"/>
    </g>
    <g text-rendering="geometricPrecision" stroke-miterlimit="1.45" shape-rendering="geometricPrecision" transform="matrix(1,0,0,1,-942,-573)" stroke-linecap="butt">
      <path fill="none" d="M1333.344 1030.066 L1533.344 1030.066 L1533.344 1060.066 L1523.344 1070.066 L1343.344 1070.066 L1333.344 1060.066 Z" clip-path="url(#clipPath2)"/>
      <text x="1379.6135" xml:space="preserve" y="1054.2203" clip-path="url(#clipPath2)" font-family="sans-serif" stroke="none">Конец цикла по j</text>
    </g>
    <g fill="url(#linearGradient19)" text-rendering="geometricPrecision" shape-rendering="geometricPrecision" transform="matrix(1,0,0,1,-942,-573)" stroke="url(#linearGradient19)">
      <path d="M1333.344 1100.066 L1533.344 1100.066 L1533.344 1130.066 L1523.344 1140.066 L1343.344 1140.066 L1333.344 1130.066 Z" stroke="none" clip-path="url(#clipPath2)"/>
    </g>
    <g text-rendering="geometricPrecision" stroke-miterlimit="1.45" shape-rendering="geometricPrecision" transform="matrix(1,0,0,1,-942,-573)" stroke-linecap="butt">
      <path fill="none" d="M1333.344 1100.066 L1533.344 1100.066 L1533.344 1130.066 L1523.344 1140.066 L1343.344 1140.066 L1333.344 1130.066 Z" clip-path="url(#clipPath2)"/>
      <text x="1379.6135" xml:space="preserve" y="1124.2203" clip-path="url(#clipPath2)" font-family="sans-serif" stroke="none">Конец цикла по j</text>
    </g>
    <g fill="url(#linearGradient20)" text-rendering="geometricPrecision" shape-rendering="geometricPrecision" transform="matrix(1,0,0,1,-942,-573)" stroke="url(#linearGradient20)">
      <path d="M1343.5439 1170.066 L1533.344 1170.066 L1523.144 1210.066 L1333.344 1210.066 Z" stroke="none" clip-path="url(#clipPath2)"/>
    </g>
    <g text-rendering="geometricPrecision" stroke-miterlimit="1.45" shape-rendering="geometricPrecision" transform="matrix(1,0,0,1,-942,-573)" stroke-linecap="butt">
      <path fill="none" d="M1343.5439 1170.066 L1533.344 1170.066 L1523.144 1210.066 L1333.344 1210.066 Z" clip-path="url(#clipPath2)"/>
      <text x="1369.1633" xml:space="preserve" y="1194.2203" clip-path="url(#clipPath2)" font-family="sans-serif" stroke="none">Возврат cache[n][m]</text>
    </g>
    <g fill="url(#linearGradient21)" text-rendering="geometricPrecision" shape-rendering="geometricPrecision" transform="matrix(1,0,0,1,-942,-573)" stroke="url(#linearGradient21)">
      <rect x="1333.344" y="1240.066" clip-path="url(#clipPath2)" width="200" rx="20" ry="20" height="40" stroke="none"/>
    </g>
    <g text-rendering="geometricPrecision" stroke-miterlimit="1.45" shape-rendering="geometricPrecision" transform="matrix(1,0,0,1,-942,-573)" stroke-linecap="butt">
      <rect x="1333.344" y="1240.066" clip-path="url(#clipPath2)" fill="none" width="200" rx="20" ry="20" height="40"/>
      <text x="1399.4182" xml:space="preserve" y="1264.2203" clip-path="url(#clipPath2)" font-family="sans-serif" stroke="none">Конец РЛК</text>
    </g>
    <g text-rendering="geometricPrecision" stroke-miterlimit="1.45" shape-rendering="geometricPrecision" transform="matrix(1,0,0,1,-942,-573)" stroke-linecap="butt">
      <path fill="none" d="M1057.072 628.0131 L1057.072 644.5845" clip-path="url(#clipPath2)"/>
    </g>
    <g text-rendering="geometricPrecision" stroke-miterlimit="1.45" shape-rendering="geometricPrecision" transform="matrix(1,0,0,1,-942,-573)" stroke-linecap="butt">
      <path d="M1057.072 652.5845 L1062.072 640.5845 L1057.072 643.5845 L1052.072 640.5845 Z" stroke="none" clip-path="url(#clipPath2)"/>
      <path fill="none" d="M1057.072 692.5411 L1057.072 714.5734" clip-path="url(#clipPath2)"/>
      <path d="M1057.072 722.5734 L1062.072 710.5734 L1057.072 713.5734 L1052.072 710.5734 Z" clip-path="url(#clipPath2)" stroke="none"/>
      <path fill="none" d="M1057.072 762.5411 L1057.072 784.5734" clip-path="url(#clipPath2)"/>
      <path d="M1057.072 792.5734 L1062.072 780.5734 L1057.072 783.5734 L1052.072 780.5734 Z" clip-path="url(#clipPath2)" stroke="none"/>
      <path fill="none" d="M1057.072 832.5411 L1057.072 854.5734" clip-path="url(#clipPath2)"/>
      <path d="M1057.072 862.5734 L1062.072 850.5734 L1057.072 853.5734 L1052.072 850.5734 Z" clip-path="url(#clipPath2)" stroke="none"/>
      <path fill="none" d="M1057.072 902.5411 L1057.072 924.5734" clip-path="url(#clipPath2)"/>
      <path d="M1057.072 932.5734 L1062.072 920.5734 L1057.072 923.5734 L1052.072 920.5734 Z" clip-path="url(#clipPath2)" stroke="none"/>
      <path fill="none" d="M1057.072 972.5411 L1057.072 994.5734" clip-path="url(#clipPath2)"/>
      <path d="M1057.072 1002.5734 L1062.072 990.5734 L1057.072 993.5734 L1052.072 990.5734 Z" clip-path="url(#clipPath2)" stroke="none"/>
      <path fill="none" d="M1057.072 1042.5411 L1057.072 1064.5734" clip-path="url(#clipPath2)"/>
      <path d="M1057.072 1072.5734 L1062.072 1060.5734 L1057.072 1063.5734 L1052.072 1060.5734 Z" clip-path="url(#clipPath2)" stroke="none"/>
      <path fill="none" d="M1057.072 1112.5411 L1057.072 1134.5734" clip-path="url(#clipPath2)"/>
      <path d="M1057.072 1142.5734 L1062.072 1130.5734 L1057.072 1133.5734 L1052.072 1130.5734 Z" clip-path="url(#clipPath2)" stroke="none"/>
      <path fill="none" d="M1057.072 1182.5411 L1057.072 1204.5734" clip-path="url(#clipPath2)"/>
      <path d="M1057.072 1212.5734 L1062.072 1200.5734 L1057.072 1203.5734 L1052.072 1200.5734 Z" clip-path="url(#clipPath2)" stroke="none"/>
      <path fill="none" d="M1057.072 1252.5411 L1057.072 1274.5734" clip-path="url(#clipPath2)"/>
      <path d="M1057.072 1282.5734 L1062.072 1270.5734 L1057.072 1273.5734 L1052.072 1270.5734 Z" clip-path="url(#clipPath2)" stroke="none"/>
      <path fill="none" d="M1433.344 688.093 L1433.344 704.6645" clip-path="url(#clipPath2)"/>
      <path d="M1433.344 712.6645 L1438.344 700.6645 L1433.344 703.6645 L1428.344 700.6645 Z" clip-path="url(#clipPath2)" stroke="none"/>
      <path fill="none" d="M1433.344 752.6212 L1433.344 774.6534" clip-path="url(#clipPath2)"/>
      <path d="M1433.344 782.6534 L1438.344 770.6534 L1433.344 773.6534 L1428.344 770.6534 Z" clip-path="url(#clipPath2)" stroke="none"/>
      <path fill="none" d="M1433.344 822.645 L1433.344 844.6248" clip-path="url(#clipPath2)"/>
      <path d="M1433.344 852.6248 L1438.344 840.6248 L1433.344 843.6248 L1428.344 840.6248 Z" clip-path="url(#clipPath2)" stroke="none"/>
      <path fill="none" d="M1339.2881 882.546 L1300.5439 882.546 L1300.5439 934.458" clip-path="url(#clipPath2)"/>
      <path d="M1300.5439 942.458 L1305.5439 930.458 L1300.5439 933.458 L1295.5439 930.458 Z" clip-path="url(#clipPath2)" stroke="none"/>
      <path fill="none" d="M1527.4485 882.546 L1566.488 882.546 L1566.488 934.458" clip-path="url(#clipPath2)"/>
      <path d="M1566.488 942.458 L1571.488 930.458 L1566.488 933.458 L1561.488 930.458 Z" clip-path="url(#clipPath2)" stroke="none"/>
      <text x="1538.2739" xml:space="preserve" y="879.1003" clip-path="url(#clipPath2)" font-family="sans-serif" stroke="none">Да</text>
      <path fill="none" d="M1300.5439 1000.0663 L1300.5439 1014.3193 L1433.344 1014.3193 L1433.344 1022.0632" clip-path="url(#clipPath2)"/>
      <path d="M1433.344 1030.0632 L1438.344 1018.0632 L1433.344 1021.0632 L1428.344 1018.0632 Z" clip-path="url(#clipPath2)" stroke="none"/>
      <path fill="none" d="M1566.488 1000.0663 L1566.488 1014.3193 L1433.344 1014.3193 L1433.344 1022.0632" clip-path="url(#clipPath2)"/>
      <path d="M1433.344 1030.0632 L1438.344 1018.0632 L1433.344 1021.0632 L1428.344 1018.0632 Z" clip-path="url(#clipPath2)" stroke="none"/>
      <path fill="none" d="M1433.344 1070.0612 L1433.344 1092.0934" clip-path="url(#clipPath2)"/>
      <path d="M1433.344 1100.0934 L1438.344 1088.0934 L1433.344 1091.0934 L1428.344 1088.0934 Z" clip-path="url(#clipPath2)" stroke="none"/>
      <path fill="none" d="M1433.344 1140.0612 L1433.344 1162.0934" clip-path="url(#clipPath2)"/>
      <path d="M1433.344 1170.0934 L1438.344 1158.0934 L1433.344 1161.0934 L1428.344 1158.0934 Z" clip-path="url(#clipPath2)" stroke="none"/>
      <path fill="none" d="M1433.344 1210.0612 L1433.344 1232.0934" clip-path="url(#clipPath2)"/>
      <path d="M1433.344 1240.0934 L1438.344 1228.0934 L1433.344 1231.0934 L1428.344 1228.0934 Z" clip-path="url(#clipPath2)" stroke="none"/>
    </g>
  </g>
</svg>
